<svg version="1.1" viewBox="0.0 0.0 961.0708661417323 386.4278215223097" fill="none" stroke="none" stroke-linecap="square" stroke-miterlimit="10" xmlns:xlink="http://www.w3.org/1999/xlink" xmlns="http://www.w3.org/2000/svg"><clipPath id="p.0"><path d="m0 0l961.07086 0l0 386.42783l-961.07086 0l0 -386.42783z" clip-rule="nonzero"/></clipPath><g clip-path="url(#p.0)"><path fill="#000000" fill-opacity="0.0" d="m0 0l961.07086 0l0 386.42783l-961.07086 0z" fill-rule="evenodd"/><path fill="#cfe2f3" d="m134.04462 322.81497l194.74017 0l0 -192.8666l-66.34604 -66.346016l-128.39413 0z" fill-rule="evenodd"/><path fill="#a5b4c2" d="m262.43875 63.602364l13.269196 53.07682l53.076843 13.269196z" fill-rule="evenodd"/><path fill="#000000" fill-opacity="0.0" d="m262.43875 63.602364l13.269196 53.07682l53.076843 13.269196l-66.34604 -66.346016l-128.39413 0l0 259.21262l194.74017 0l0 -192.8666" fill-rule="evenodd"/><path stroke="#000000" stroke-width="1.0" stroke-linejoin="round" stroke-linecap="butt" d="m262.43875 63.602364l13.269196 53.07682l53.076843 13.269196l-66.34604 -66.346016l-128.39413 0l0 259.21262l194.74017 0l0 -192.8666" fill-rule="evenodd"/><path fill="#cfe2f3" d="m631.2152 192.01181l194.74017 0l0 -64.20473l-64.20471 -64.20472l-130.53546 0z" fill-rule="evenodd"/><path fill="#a5b4c2" d="m761.7507 63.602364l12.840942 51.363777l51.36377 12.840942z" fill-rule="evenodd"/><path fill="#000000" fill-opacity="0.0" d="m761.7507 63.602364l12.840942 51.363777l51.36377 12.840942l-64.20471 -64.20472l-130.53546 0l0 128.40945l194.74017 0l0 -64.20473" fill-rule="evenodd"/><path stroke="#000000" stroke-width="1.0" stroke-linejoin="round" stroke-linecap="butt" d="m761.7507 63.602364l12.840942 51.363777l51.36377 12.840942l-64.20471 -64.20472l-130.53546 0l0 128.40945l194.74017 0l0 -64.20473" fill-rule="evenodd"/><path fill="#cfe2f3" d="m633.36743 199.54987l192.59845 0l0 123.275604l-192.59845 0z" fill-rule="evenodd"/><path stroke="#000000" stroke-width="1.0" stroke-linejoin="round" stroke-linecap="butt" d="m633.36743 199.54987l192.59845 0l0 123.275604l-192.59845 0z" fill-rule="evenodd"/><path fill="#e69138" d="m393.38583 171.55511l129.92123 0l0 -21.653534l43.30713 43.307083l-43.30713 43.307083l0 -21.65355l-129.92123 0z" fill-rule="evenodd"/><path fill="#000000" fill-opacity="0.0" d="m191.24147 172.20604l80.34645 0l0 45.259842l-80.34645 0z" fill-rule="evenodd"/><path fill="#000000" d="m203.36462 201.68604l0 -15.265625l3.078125 0l0 6.0l6.046875 0l0 -6.0l3.078125 0l0 15.265625l-3.078125 0l0 -6.671875l-6.046875 0l0 6.671875l-3.078125 0zm18.824371 0l0 -12.6875l-4.53125 0l0 -2.578125l12.140625 0l0 2.578125l-4.515625 0l0 12.6875l-3.09375 0zm9.559326 0l0 -15.265625l4.609375 0l2.765625 10.40625l2.734375 -10.40625l4.625 0l0 15.265625l-2.859375 0l0 -12.015625l-3.03125 12.015625l-2.96875 0l-3.015625 -12.015625l0 12.015625l-2.859375 0zm17.891495 0l0 -15.140625l3.078125 0l0 12.5625l7.6562347 0l0 2.578125l-10.73436 0z" fill-rule="nonzero"/><path fill="#000000" fill-opacity="0.0" d="m688.41205 105.17716l80.3465 0l0 45.25985l-80.3465 0z" fill-rule="evenodd"/><path fill="#000000" d="m699.9312 134.65717l0 -15.265625l3.078125 0l0 6.0l6.046875 0l0 -6.0l3.078125 0l0 15.265625l-3.078125 0l0 -6.671875l-6.046875 0l0 6.671875l-3.078125 0zm15.386841 0l0 -15.265625l11.328125 0l0 2.578125l-8.234375 0l0 3.390625l7.65625 0l0 2.5625l-7.65625 0l0 4.15625l8.515625 0l0 2.578125l-11.609375 0zm27.991333 0l-3.34375 0l-1.328125 -3.46875l-6.109375 0l-1.265625 3.46875l-3.265625 0l5.953125 -15.265625l3.25 0l6.109375 15.265625zm-5.671875 -6.046875l-2.09375 -5.65625l-2.0625 5.65625l4.15625 0zm7.308777 -9.21875l5.625 0q1.90625 0 2.90625 0.296875q1.34375 0.390625 2.296875 1.40625q0.96875 1.0 1.46875 2.46875q0.5 1.453125 0.5 3.609375q0 1.875 -0.46875 3.25q-0.578125 1.65625 -1.640625 2.6875q-0.796875 0.78125 -2.15625 1.21875q-1.03125 0.328125 -2.734375 0.328125l-5.796875 0l0 -15.265625zm3.078125 2.578125l0 10.109375l2.296875 0q1.296875 0 1.875 -0.140625q0.75 -0.1875 1.234375 -0.625q0.5 -0.453125 0.8125 -1.484375q0.3125 -1.03125 0.3125 -2.796875q0 -1.765625 -0.3125 -2.703125q-0.3125 -0.953125 -0.875 -1.484375q-0.5625 -0.53125 -1.421875 -0.71875q-0.65625 -0.15625 -2.53125 -0.15625l-1.390625 0z" fill-rule="nonzero"/><path fill="#000000" fill-opacity="0.0" d="m678.5066 238.55905l100.15747 0l0 45.259857l-100.15747 0z" fill-rule="evenodd"/><path fill="#000000" d="m699.3376 252.77342l6.109375 0q1.8125 0 2.6875 0.15625q0.890625 0.140625 1.59375 0.625q0.703125 0.484375 1.171875 1.28125q0.46875 0.796875 0.46875 1.7812653q0 1.0625 -0.578125 1.96875q-0.578125 0.890625 -1.5625 1.34375q1.390625 0.40625 2.140625 1.390625q0.75 0.96875 0.75 2.296875q0 1.03125 -0.484375 2.015625q-0.484375 0.984375 -1.328125 1.578125q-0.828125 0.59375 -2.046875 0.71875q-0.78125 0.09375 -3.71875 0.109375l-5.203125 0l0 -15.26564zm3.078125 2.546875l0 3.5156403l2.03125 0q1.796875 0 2.234375 -0.046875q0.796875 -0.09375 1.25 -0.546875q0.453125 -0.453125 0.453125 -1.1875q0 -0.703125 -0.390625 -1.1406403q-0.390625 -0.453125 -1.171875 -0.546875q-0.453125 -0.046875 -2.625 -0.046875l-1.78125 0zm0 6.0625153l0 4.078125l2.859375 0q1.671875 0 2.109375 -0.09375q0.6875 -0.125 1.109375 -0.609375q0.4375 -0.484375 0.4375 -1.296875q0 -0.6875 -0.328125 -1.15625q-0.328125 -0.484375 -0.96875 -0.703125q-0.625 -0.21875 -2.71875 -0.21875l-2.5 0zm11.683777 -0.890625q0 -2.328125 0.703125 -3.90625q0.515625 -1.1718903 1.421875 -2.0937653q0.90625 -0.921875 1.96875 -1.375q1.4375 -0.609375 3.296875 -0.609375q3.375 0 5.390625 2.09375q2.03125 2.0937653 2.03125 5.8281403q0 3.6875 -2.015625 5.78125q-2.0 2.09375 -5.359375 2.09375q-3.40625 0 -5.421875 -2.078125q-2.015625 -2.078125 -2.015625 -5.734375zm3.1875 -0.09375q0 2.59375 1.1875 3.9375q1.203125 1.328125 3.046875 1.328125q1.84375 0 3.015625 -1.328125q1.1875 -1.328125 1.1875 -3.984375q0 -2.625 -1.15625 -3.90625q-1.140625 -1.2968903 -3.046875 -1.2968903q-1.90625 0 -3.078125 1.3125153q-1.15625 1.296875 -1.15625 3.9375zm14.027222 -7.6250153l5.625 0q1.90625 0 2.90625 0.296875q1.34375 0.390625 2.296875 1.40625q0.96875 1.0 1.46875 2.4687653q0.5 1.453125 0.5 3.609375q0 1.875 -0.46875 3.25q-0.578125 1.65625 -1.640625 2.6875q-0.796875 0.78125 -2.15625 1.21875q-1.03125 0.328125 -2.734375 0.328125l-5.796875 0l0 -15.26564zm3.078125 2.578125l0 10.10939l2.296875 0q1.296875 0 1.875 -0.140625q0.75 -0.1875 1.234375 -0.625q0.5 -0.453125 0.8125 -1.484375q0.3125 -1.03125 0.3125 -2.796875q0 -1.765625 -0.3125 -2.703125q-0.3125 -0.953125 -0.875 -1.484375q-0.5625 -0.53126526 -1.421875 -0.71876526q-0.65625 -0.15625 -2.53125 -0.15625l-1.390625 0zm16.339966 12.687515l0 -6.421875l-5.59375 -8.843765l3.609375 0l3.59375 6.0312653l3.515625 -6.0312653l3.5625 0l-5.609375 8.85939l0 6.40625l-3.078125 0z" fill-rule="nonzero"/><path fill="#000000" fill-opacity="0.0" d="m134.04462 63.603676l166.04724 0l0 54.92913l-166.04724 0z" fill-rule="evenodd"/><path fill="#708090" d="m149.99774 84.69992l0 -1.34375l-4.171875 -1.609375l-0.375 -0.125l0.375 -0.109375l4.171875 -1.640625l0 -1.34375l-5.796875 2.59375l0 0.984375l5.796875 2.59375zm6.166992 -1.875l0 -6.734375l-1.265625 0l0 6.734375l1.265625 0zm-1.390625 2.5625q0 0.3125 0.1875 0.53125q0.203125 0.203125 0.59375 0.203125q0.375 0 0.578125 -0.203125q0.203125 -0.21875 0.203125 -0.53125q0 -0.328125 -0.203125 -0.546875q-0.203125 -0.21875 -0.578125 -0.21875q-0.390625 0 -0.59375 0.21875q-0.1875 0.21875 -0.1875 0.546875zm6.135742 0.65625l2.296875 0q0.71875 0 1.328125 -0.15625q0.625 -0.171875 1.125 -0.484375q0.46875 -0.296875 0.84375 -0.703125q0.375 -0.421875 0.625 -0.9375q0.234375 -0.5 0.359375 -1.078125q0.125 -0.59375 0.125 -1.25l0 -0.734375q0 -0.671875 -0.140625 -1.265625q-0.125 -0.609375 -0.390625 -1.125q-0.28125 -0.59375 -0.75 -1.046875q-0.46875 -0.453125 -1.0625 -0.734375q-0.4375 -0.203125 -0.96875 -0.3125q-0.515625 -0.125 -1.09375 -0.125l-2.296875 0l0 9.953125zm1.28125 -8.921875l1.015625 0q0.46875 0.015625 0.859375 0.125q0.40625 0.09375 0.734375 0.265625q0.453125 0.234375 0.75 0.625q0.3125 0.390625 0.5 0.859375q0.140625 0.375 0.21875 0.8125q0.078125 0.421875 0.078125 0.875l0 0.75q0 0.453125 -0.078125 0.875q-0.0625 0.421875 -0.203125 0.78125q-0.15625 0.453125 -0.421875 0.8125q-0.265625 0.359375 -0.640625 0.609375q-0.34375 0.234375 -0.796875 0.359375q-0.453125 0.125 -1.0 0.140625l-1.015625 0l0 -7.890625zm13.713867 4.515625l0 -1.125q0 -0.546875 -0.09375 -1.09375q-0.078125 -0.546875 -0.25 -1.046875q-0.1875 -0.5 -0.46875 -0.9375q-0.28125 -0.453125 -0.65625 -0.78125q-0.390625 -0.328125 -0.890625 -0.515625q-0.484375 -0.1875 -1.109375 -0.1875q-0.609375 0 -1.109375 0.1875q-0.5 0.1875 -0.875 0.515625q-0.390625 0.34375 -0.671875 0.78125q-0.265625 0.4375 -0.4375 0.953125q-0.1875 0.5 -0.28125 1.046875q-0.078125 0.53125 -0.09375 1.078125l0 1.125q0.015625 0.53125 0.09375 1.078125q0.09375 0.53125 0.28125 1.046875q0.171875 0.5 0.453125 0.953125q0.28125 0.4375 0.671875 0.765625q0.375 0.328125 0.875 0.515625q0.5 0.1875 1.109375 0.1875q0.609375 0 1.109375 -0.1875q0.5 -0.1875 0.875 -0.515625q0.390625 -0.328125 0.65625 -0.765625q0.28125 -0.4375 0.46875 -0.953125q0.171875 -0.5 0.25 -1.046875q0.09375 -0.546875 0.09375 -1.078125zm-1.25 -1.140625l0 1.140625q0 0.359375 -0.046875 0.75q-0.03125 0.390625 -0.125 0.765625q-0.109375 0.375 -0.265625 0.734375q-0.15625 0.34375 -0.390625 0.59375q-0.25 0.265625 -0.59375 0.421875q-0.328125 0.15625 -0.78125 0.15625q-0.4375 0 -0.78125 -0.15625q-0.328125 -0.15625 -0.578125 -0.421875q-0.25 -0.25 -0.421875 -0.59375q-0.15625 -0.359375 -0.25 -0.75q-0.109375 -0.375 -0.15625 -0.75q-0.046875 -0.390625 -0.046875 -0.75l0 -1.140625q0 -0.359375 0.046875 -0.734375q0.046875 -0.390625 0.15625 -0.78125q0.09375 -0.375 0.25 -0.71875q0.171875 -0.34375 0.421875 -0.609375q0.234375 -0.25 0.5625 -0.40625q0.34375 -0.171875 0.78125 -0.171875q0.453125 0 0.78125 0.15625q0.34375 0.15625 0.578125 0.421875q0.25 0.265625 0.40625 0.609375q0.171875 0.34375 0.28125 0.71875q0.09375 0.390625 0.125 0.78125q0.046875 0.375 0.046875 0.734375zm9.635742 2.546875l-1.265625 0q-0.0625 0.453125 -0.21875 0.84375q-0.140625 0.390625 -0.40625 0.671875q-0.25 0.28125 -0.625 0.4375q-0.359375 0.15625 -0.859375 0.15625q-0.453125 0 -0.796875 -0.140625q-0.34375 -0.15625 -0.59375 -0.40625q-0.25 -0.265625 -0.421875 -0.59375q-0.15625 -0.328125 -0.265625 -0.71875q-0.09375 -0.375 -0.140625 -0.765625q-0.046875 -0.390625 -0.046875 -0.765625l0 -1.40625q0 -0.359375 0.046875 -0.75q0.046875 -0.40625 0.140625 -0.78125q0.109375 -0.375 0.265625 -0.703125q0.171875 -0.34375 0.4375 -0.59375q0.234375 -0.25 0.578125 -0.390625q0.359375 -0.15625 0.796875 -0.15625q0.5 0 0.859375 0.171875q0.375 0.171875 0.625 0.46875q0.265625 0.28125 0.40625 0.671875q0.15625 0.390625 0.21875 0.84375l1.265625 0q-0.09375 -0.703125 -0.34375 -1.296875q-0.25 -0.59375 -0.671875 -1.015625q-0.4375 -0.40625 -1.03125 -0.640625q-0.578125 -0.234375 -1.328125 -0.234375q-0.609375 0 -1.109375 0.1875q-0.5 0.171875 -0.890625 0.46875q-0.40625 0.3125 -0.6875 0.734375q-0.28125 0.421875 -0.46875 0.90625q-0.1875 0.5 -0.28125 1.046875q-0.09375 0.53125 -0.09375 1.078125l0 1.390625q0 0.5625 0.09375 1.109375q0.09375 0.53125 0.28125 1.015625q0.1875 0.5 0.46875 0.921875q0.28125 0.40625 0.6875 0.71875q0.390625 0.296875 0.890625 0.484375q0.5 0.171875 1.109375 0.171875q0.71875 0 1.296875 -0.234375q0.59375 -0.234375 1.03125 -0.640625q0.421875 -0.421875 0.6875 -0.984375q0.265625 -0.578125 0.359375 -1.28125zm8.666992 -5.875l0 -1.078125l-7.390625 0l0 1.078125l3.078125 0l0 8.875l1.234375 0l0 -8.875l3.078125 0zm4.620117 3.921875l-2.265625 -5.0l-1.4375 0l3.09375 6.234375l0.015625 3.71875l1.171875 0l0.03125 -3.71875l3.09375 -6.234375l-1.4375 0l-2.265625 5.0zm6.854492 0.953125l1.953125 0q0.671875 0 1.265625 -0.1875q0.609375 -0.203125 1.046875 -0.578125q0.453125 -0.375 0.71875 -0.921875q0.265625 -0.5625 0.265625 -1.28125q0 -0.71875 -0.265625 -1.265625q-0.265625 -0.5625 -0.71875 -0.9375q-0.4375 -0.375 -1.046875 -0.5625q-0.59375 -0.203125 -1.265625 -0.21875l-3.21875 0l0 9.953125l1.265625 0l0 -4.0zm0 -1.03125l0 -3.890625l1.953125 0q0.4375 0.015625 0.8125 0.15625q0.375 0.125 0.640625 0.390625q0.265625 0.25 0.421875 0.609375q0.15625 0.359375 0.15625 0.8125q0 0.453125 -0.15625 0.8125q-0.15625 0.34375 -0.421875 0.59375q-0.28125 0.234375 -0.65625 0.375q-0.359375 0.140625 -0.796875 0.140625l-1.953125 0zm12.495117 0.4375l0 -1.078125l-4.15625 0l0 -3.203125l4.78125 0l0 -1.078125l-6.046875 0l0 9.953125l6.109375 0l0 -1.078125l-4.84375 0l0 -3.515625l4.15625 0zm12.583984 -1.703125l0 -4.203125l-1.265625 0l0 10.5l1.265625 0l0 -5.375q0.140625 -0.21875 0.3125 -0.390625q0.171875 -0.1875 0.375 -0.328125q0.265625 -0.171875 0.5625 -0.265625q0.3125 -0.09375 0.65625 -0.09375q0.421875 -0.015625 0.734375 0.109375q0.328125 0.109375 0.546875 0.359375q0.1875 0.21875 0.28125 0.546875q0.109375 0.328125 0.109375 0.765625l0 4.671875l1.265625 0l0 -4.65625q0 -0.75 -0.1875 -1.28125q-0.171875 -0.546875 -0.5 -0.90625q-0.34375 -0.359375 -0.828125 -0.515625q-0.46875 -0.171875 -1.046875 -0.171875q-0.4375 0 -0.84375 0.125q-0.390625 0.125 -0.71875 0.359375q-0.203125 0.15625 -0.390625 0.34375q-0.171875 0.1875 -0.328125 0.40625zm10.135742 -2.890625l-1.28125 0l0 1.796875l-1.9375 0l0 0.96875l1.9375 0l0 4.015625q0 0.6875 0.1875 1.171875q0.1875 0.484375 0.5 0.78125q0.3125 0.3125 0.734375 0.453125q0.4375 0.140625 0.921875 0.140625q0.296875 0 0.59375 -0.03125q0.296875 -0.03125 0.5625 -0.078125q0.265625 -0.046875 0.484375 -0.125q0.234375 -0.078125 0.390625 -0.171875l-0.171875 -0.890625q-0.125 0.03125 -0.3125 0.078125q-0.171875 0.03125 -0.375 0.0625q-0.21875 0.03125 -0.4375 0.0625q-0.21875 0.015625 -0.421875 0.015625q-0.28125 0 -0.53125 -0.0625q-0.25 -0.078125 -0.4375 -0.25q-0.1875 -0.15625 -0.296875 -0.4375q-0.109375 -0.28125 -0.109375 -0.71875l0 -4.015625l2.8125 0l0 -0.96875l-2.8125 0l0 -1.796875zm5.979492 1.796875l-1.125 0l0 7.390625l1.203125 0l0 -5.890625q0.03125 -0.109375 0.09375 -0.203125q0.078125 -0.09375 0.15625 -0.171875q0.125 -0.09375 0.28125 -0.140625q0.171875 -0.046875 0.40625 -0.046875q0.203125 0 0.34375 0.046875q0.15625 0.046875 0.265625 0.15625q0.109375 0.125 0.15625 0.296875q0.0625 0.171875 0.0625 0.40625l0 5.546875l1.203125 0l0 -5.53125q0 -0.046875 0 -0.078125q0 -0.03125 0 -0.0625q0.015625 -0.171875 0.078125 -0.3125q0.0625 -0.140625 0.171875 -0.25q0.109375 -0.109375 0.265625 -0.15625q0.171875 -0.0625 0.390625 -0.0625q0.21875 0 0.375 0.0625q0.15625 0.046875 0.265625 0.15625q0.109375 0.109375 0.15625 0.296875q0.0625 0.171875 0.0625 0.40625l0 5.53125l1.203125 0l0 -5.53125q0 -0.53125 -0.125 -0.921875q-0.125 -0.390625 -0.359375 -0.640625q-0.203125 -0.21875 -0.515625 -0.328125q-0.3125 -0.109375 -0.6875 -0.109375q-0.28125 0 -0.515625 0.078125q-0.234375 0.0625 -0.4375 0.171875q-0.140625 0.109375 -0.28125 0.25q-0.125 0.140625 -0.21875 0.296875q-0.078125 -0.171875 -0.1875 -0.3125q-0.09375 -0.140625 -0.234375 -0.234375q-0.171875 -0.125 -0.40625 -0.1875q-0.234375 -0.0625 -0.53125 -0.0625q-0.515625 0 -0.890625 0.21875q-0.359375 0.21875 -0.578125 0.609375l-0.046875 -0.6875zm8.026367 -3.109375l0 1.09375l2.515625 0l0 8.3125l-2.515625 0l0 1.09375l6.1875 0l0 -1.09375l-2.40625 0l0 -9.40625l-3.78125 0zm8.229492 9.15625l6.03125 -2.59375l0 -1.0l-6.03125 -2.578125l0 1.296875l4.421875 1.640625l0.40625 0.140625l-0.40625 0.109375l-4.421875 1.671875l0 1.3125z" fill-rule="nonzero"/><path fill="#000000" fill-opacity="0.0" d="m134.04462 84.4462l80.346466 0l0 36.34645l-80.346466 0z" fill-rule="evenodd"/><path fill="#999999" d="m149.99774 105.54244l0 -1.34375l-4.171875 -1.609375l-0.375 -0.125l0.375 -0.109375l4.171875 -1.640625l0 -1.34375l-5.796875 2.59375l0 0.984375l5.796875 2.59375z" fill-rule="nonzero"/><path fill="#990055" d="m153.89911 100.58932l0 -4.203125l-1.265625 0l0 10.5l1.265625 0l0 -5.375q0.140625 -0.21875 0.3125 -0.390625q0.171875 -0.1875 0.375 -0.328125q0.265625 -0.171875 0.5625 -0.265625q0.3125 -0.09375 0.65625 -0.09375q0.421875 -0.015625 0.734375 0.109375q0.328125 0.109375 0.546875 0.359375q0.1875 0.21875 0.28125 0.546875q0.109375 0.328125 0.109375 0.765625l0 4.671875l1.265625 0l0 -4.65625q0 -0.75 -0.1875 -1.28125q-0.171875 -0.546875 -0.5 -0.90625q-0.34375 -0.359375 -0.828125 -0.515625q-0.46875 -0.171875 -1.046875 -0.171875q-0.4375 0 -0.84375 0.125q-0.390625 0.125 -0.71875 0.359375q-0.203125 0.15625 -0.390625 0.34375q-0.171875 0.1875 -0.328125 0.40625zm10.135742 -2.890625l-1.28125 0l0 1.796875l-1.9375 0l0 0.96875l1.9375 0l0 4.015625q0 0.6875 0.1875 1.171875q0.1875 0.484375 0.5 0.78125q0.3125 0.3125 0.734375 0.453125q0.4375 0.140625 0.921875 0.140625q0.296875 0 0.59375 -0.03125q0.296875 -0.03125 0.5625 -0.078125q0.265625 -0.046875 0.484375 -0.125q0.234375 -0.078125 0.390625 -0.171875l-0.171875 -0.890625q-0.125 0.03125 -0.3125 0.078125q-0.171875 0.03125 -0.375 0.0625q-0.21875 0.03125 -0.4375 0.0625q-0.21875 0.015625 -0.421875 0.015625q-0.28125 0 -0.53125 -0.0625q-0.25 -0.078125 -0.4375 -0.25q-0.1875 -0.15625 -0.296875 -0.4375q-0.109375 -0.28125 -0.109375 -0.71875l0 -4.015625l2.8125 0l0 -0.96875l-2.8125 0l0 -1.796875zm5.979492 1.796875l-1.125 0l0 7.390625l1.203125 0l0 -5.890625q0.03125 -0.109375 0.09375 -0.203125q0.078125 -0.09375 0.15625 -0.171875q0.125 -0.09375 0.28125 -0.140625q0.171875 -0.046875 0.40625 -0.046875q0.203125 0 0.34375 0.046875q0.15625 0.046875 0.265625 0.15625q0.109375 0.125 0.15625 0.296875q0.0625 0.171875 0.0625 0.40625l0 5.546875l1.203125 0l0 -5.53125q0 -0.046875 0 -0.078125q0 -0.03125 0 -0.0625q0.015625 -0.171875 0.078125 -0.3125q0.0625 -0.140625 0.171875 -0.25q0.109375 -0.109375 0.265625 -0.15625q0.171875 -0.0625 0.390625 -0.0625q0.21875 0 0.375 0.0625q0.15625 0.046875 0.265625 0.15625q0.109375 0.109375 0.15625 0.296875q0.0625 0.171875 0.0625 0.40625l0 5.53125l1.203125 0l0 -5.53125q0 -0.53125 -0.125 -0.921875q-0.125 -0.390625 -0.359375 -0.640625q-0.203125 -0.21875 -0.515625 -0.328125q-0.3125 -0.109375 -0.6875 -0.109375q-0.28125 0 -0.515625 0.078125q-0.234375 0.0625 -0.4375 0.171875q-0.140625 0.109375 -0.28125 0.25q-0.125 0.140625 -0.21875 0.296875q-0.078125 -0.171875 -0.1875 -0.3125q-0.09375 -0.140625 -0.234375 -0.234375q-0.171875 -0.125 -0.40625 -0.1875q-0.234375 -0.0625 -0.53125 -0.0625q-0.515625 0 -0.890625 0.21875q-0.359375 0.21875 -0.578125 0.609375l-0.046875 -0.6875zm8.026367 -3.109375l0 1.09375l2.515625 0l0 8.3125l-2.515625 0l0 1.09375l6.1875 0l0 -1.09375l-2.40625 0l0 -9.40625l-3.78125 0z" fill-rule="nonzero"/><path fill="#999999" d="m186.2702 105.54244l6.03125 -2.59375l0 -1.0l-6.03125 -2.578125l0 1.296875l4.421875 1.640625l0.40625 0.140625l-0.40625 0.109375l-4.421875 1.671875l0 1.3125z" fill-rule="nonzero"/><path fill="#000000" fill-opacity="0.0" d="m134.04462 286.48032l80.346466 0l0 36.346466l-80.346466 0z" fill-rule="evenodd"/><path fill="#999999" d="m149.99774 307.57657l0 -1.34375l-4.171875 -1.609375l-0.375 -0.125l0.375 -0.109375l4.171875 -1.640625l0 -1.34375l-5.796875 2.59375l0 0.984375l5.796875 2.59375zm4.307617 2.203125l4.140625 -10.8125l-1.125 0l-4.15625 10.8125l1.140625 0z" fill-rule="nonzero"/><path fill="#990055" d="m162.30048 302.62344l0 -4.203125l-1.265625 0l0 10.5l1.265625 0l0 -5.375q0.140625 -0.21875 0.3125 -0.390625q0.171875 -0.1875 0.375 -0.328125q0.265625 -0.171875 0.5625 -0.265625q0.3125 -0.09375 0.65625 -0.09375q0.421875 -0.015625 0.734375 0.109375q0.328125 0.109375 0.546875 0.359375q0.1875 0.21875 0.28125 0.546875q0.109375 0.328125 0.109375 0.765625l0 4.671875l1.265625 0l0 -4.65625q0 -0.75 -0.1875 -1.28125q-0.171875 -0.546875 -0.5 -0.90625q-0.34375 -0.359375 -0.828125 -0.515625q-0.46875 -0.171875 -1.046875 -0.171875q-0.4375 0 -0.84375 0.125q-0.390625 0.125 -0.71875 0.359375q-0.203125 0.15625 -0.390625 0.34375q-0.171875 0.1875 -0.328125 0.40625zm10.135742 -2.890625l-1.28125 0l0 1.796875l-1.9375 0l0 0.96875l1.9375 0l0 4.015625q0 0.6875 0.1875 1.171875q0.1875 0.484375 0.5 0.78125q0.3125 0.3125 0.734375 0.453125q0.4375 0.140625 0.921875 0.140625q0.296875 0 0.59375 -0.03125q0.296875 -0.03125 0.5625 -0.078125q0.265625 -0.046875 0.484375 -0.125q0.234375 -0.078125 0.390625 -0.171875l-0.171875 -0.890625q-0.125 0.03125 -0.3125 0.078125q-0.171875 0.03125 -0.375 0.0625q-0.21875 0.03125 -0.4375 0.0625q-0.21875 0.015625 -0.421875 0.015625q-0.28125 0 -0.53125 -0.0625q-0.25 -0.078125 -0.4375 -0.25q-0.1875 -0.15625 -0.296875 -0.4375q-0.109375 -0.28125 -0.109375 -0.71875l0 -4.015625l2.8125 0l0 -0.96875l-2.8125 0l0 -1.796875zm5.979492 1.796875l-1.125 0l0 7.390625l1.203125 0l0 -5.890625q0.03125 -0.109375 0.09375 -0.203125q0.078125 -0.09375 0.15625 -0.171875q0.125 -0.09375 0.28125 -0.140625q0.171875 -0.046875 0.40625 -0.046875q0.203125 0 0.34375 0.046875q0.15625 0.046875 0.265625 0.15625q0.109375 0.125 0.15625 0.296875q0.0625 0.171875 0.0625 0.40625l0 5.546875l1.203125 0l0 -5.53125q0 -0.046875 0 -0.078125q0 -0.03125 0 -0.0625q0.015625 -0.171875 0.078125 -0.3125q0.0625 -0.140625 0.171875 -0.25q0.109375 -0.109375 0.265625 -0.15625q0.171875 -0.0625 0.390625 -0.0625q0.21875 0 0.375 0.0625q0.15625 0.046875 0.265625 0.15625q0.109375 0.109375 0.15625 0.296875q0.0625 0.171875 0.0625 0.40625l0 5.53125l1.203125 0l0 -5.53125q0 -0.53125 -0.125 -0.921875q-0.125 -0.390625 -0.359375 -0.640625q-0.203125 -0.21875 -0.515625 -0.328125q-0.3125 -0.109375 -0.6875 -0.109375q-0.28125 0 -0.515625 0.078125q-0.234375 0.0625 -0.4375 0.171875q-0.140625 0.109375 -0.28125 0.25q-0.125 0.140625 -0.21875 0.296875q-0.078125 -0.171875 -0.1875 -0.3125q-0.09375 -0.140625 -0.234375 -0.234375q-0.171875 -0.125 -0.40625 -0.1875q-0.234375 -0.0625 -0.53125 -0.0625q-0.515625 0 -0.890625 0.21875q-0.359375 0.21875 -0.578125 0.609375l-0.046875 -0.6875zm8.026367 -3.109375l0 1.09375l2.515625 0l0 8.3125l-2.515625 0l0 1.09375l6.1875 0l0 -1.09375l-2.40625 0l0 -9.40625l-3.78125 0z" fill-rule="nonzero"/><path fill="#999999" d="m194.67157 307.57657l6.03125 -2.59375l0 -1.0l-6.03125 -2.578125l0 1.296875l4.421875 1.640625l0.40625 0.140625l-0.40625 0.109375l-4.421875 1.671875l0 1.3125z" fill-rule="nonzero"/><path fill="#000000" fill-opacity="0.0" d="m631.2152 63.603676l80.3465 0l0 36.34646l-80.3465 0z" fill-rule="evenodd"/><path fill="#999999" d="m647.16833 84.69992l0 -1.34375l-4.171875 -1.609375l-0.375 -0.125l0.375 -0.109375l4.171875 -1.640625l0 -1.34375l-5.796875 2.59375l0 0.984375l5.796875 2.59375z" fill-rule="nonzero"/><path fill="#990055" d="m651.0697 79.746796l0 -4.203125l-1.265625 0l0 10.5l1.265625 0l0 -5.375q0.140625 -0.21875 0.3125 -0.390625q0.171875 -0.1875 0.375 -0.328125q0.265625 -0.171875 0.5625 -0.265625q0.3125 -0.09375 0.65625 -0.09375q0.421875 -0.015625 0.734375 0.109375q0.328125 0.109375 0.546875 0.359375q0.1875 0.21875 0.28125 0.546875q0.109375 0.328125 0.109375 0.765625l0 4.671875l1.265625 0l0 -4.65625q0 -0.75 -0.1875 -1.28125q-0.171875 -0.546875 -0.5 -0.90625q-0.34375 -0.359375 -0.828125 -0.515625q-0.46875 -0.171875 -1.046875 -0.171875q-0.4375 0 -0.84375 0.125q-0.390625 0.125 -0.71875 0.359375q-0.203125 0.15625 -0.390625 0.34375q-0.171875 0.1875 -0.328125 0.40625zm10.401367 6.4375q1.078125 0 1.8125 -0.4375q0.734375 -0.4375 1.109375 -1.0l-0.765625 -0.59375q-0.359375 0.453125 -0.890625 0.734375q-0.515625 0.265625 -1.1875 0.265625q-0.515625 0 -0.9375 -0.1875q-0.421875 -0.203125 -0.734375 -0.53125q-0.28125 -0.3125 -0.453125 -0.71875q-0.171875 -0.421875 -0.21875 -0.953125l0 -0.0625l5.28125 0l0 -0.5625q0 -0.765625 -0.203125 -1.421875q-0.1875 -0.671875 -0.578125 -1.171875q-0.390625 -0.484375 -1.0 -0.75q-0.59375 -0.28125 -1.390625 -0.28125q-0.640625 0 -1.25 0.265625q-0.59375 0.25 -1.078125 0.734375q-0.46875 0.5 -0.765625 1.203125q-0.28125 0.703125 -0.28125 1.609375l0 0.28125q0 0.765625 0.25 1.421875q0.265625 0.65625 0.734375 1.140625q0.46875 0.484375 1.109375 0.75q0.65625 0.265625 1.4375 0.265625zm-0.15625 -6.640625q0.484375 0 0.828125 0.1875q0.359375 0.171875 0.59375 0.453125q0.234375 0.296875 0.359375 0.6875q0.125 0.390625 0.125 0.734375l0 0.0625l-3.96875 0q0.0625 -0.515625 0.25 -0.90625q0.203125 -0.390625 0.46875 -0.671875q0.28125 -0.265625 0.609375 -0.40625q0.34375 -0.140625 0.734375 -0.140625zm10.151367 6.5l1.328125 0l0 -0.109375q-0.125 -0.3125 -0.203125 -0.71875q-0.0625 -0.421875 -0.0625 -0.78125l0 -3.4375q0 -0.625 -0.234375 -1.09375q-0.21875 -0.46875 -0.609375 -0.78125q-0.390625 -0.296875 -0.9375 -0.453125q-0.53125 -0.15625 -1.171875 -0.15625q-0.6875 0 -1.234375 0.1875q-0.53125 0.1875 -0.90625 0.5q-0.390625 0.3125 -0.59375 0.703125q-0.203125 0.390625 -0.203125 0.796875l1.265625 0q0 -0.234375 0.109375 -0.453125q0.125 -0.21875 0.328125 -0.375q0.203125 -0.15625 0.5 -0.25q0.296875 -0.09375 0.671875 -0.09375q0.40625 0 0.71875 0.109375q0.328125 0.09375 0.5625 0.28125q0.21875 0.1875 0.34375 0.453125q0.125 0.265625 0.125 0.609375l0 0.578125l-1.375 0q-0.78125 0 -1.40625 0.15625q-0.625 0.140625 -1.0625 0.4375q-0.453125 0.3125 -0.703125 0.78125q-0.234375 0.453125 -0.234375 1.0625q0 0.453125 0.171875 0.859375q0.1875 0.40625 0.53125 0.6875q0.328125 0.296875 0.796875 0.46875q0.484375 0.171875 1.0625 0.171875q0.375 0 0.6875 -0.078125q0.328125 -0.078125 0.609375 -0.203125q0.28125 -0.140625 0.515625 -0.296875q0.234375 -0.171875 0.421875 -0.375q0.03125 0.234375 0.0625 0.453125q0.046875 0.21875 0.125 0.359375zm-2.234375 -0.96875q-0.359375 0 -0.640625 -0.09375q-0.28125 -0.09375 -0.46875 -0.265625q-0.1875 -0.15625 -0.28125 -0.390625q-0.09375 -0.234375 -0.09375 -0.515625q0 -0.28125 0.109375 -0.5q0.109375 -0.234375 0.3125 -0.390625q0.28125 -0.234375 0.765625 -0.34375q0.5 -0.125 1.15625 -0.125l1.171875 0l0 1.5q-0.109375 0.21875 -0.296875 0.421875q-0.1875 0.203125 -0.453125 0.359375q-0.265625 0.15625 -0.59375 0.25q-0.3125 0.09375 -0.6875 0.09375zm5.541992 -2.796875l0 0.15625q0 0.78125 0.203125 1.46875q0.21875 0.6875 0.59375 1.203125q0.390625 0.5 0.9375 0.796875q0.546875 0.28125 1.203125 0.28125q0.6875 0 1.203125 -0.234375q0.515625 -0.234375 0.875 -0.6875l0.0625 0.78125l1.15625 0l0 -10.5l-1.265625 0l0 3.828125q-0.359375 -0.421875 -0.859375 -0.640625q-0.484375 -0.21875 -1.15625 -0.21875q-0.671875 0 -1.21875 0.28125q-0.546875 0.28125 -0.9375 0.78125q-0.375 0.5 -0.59375 1.1875q-0.203125 0.6875 -0.203125 1.515625zm1.265625 0.15625l0 -0.15625q0 -0.53125 0.109375 -1.015625q0.125 -0.5 0.359375 -0.875q0.25 -0.359375 0.625 -0.578125q0.375 -0.21875 0.90625 -0.21875q0.625 0 1.046875 0.296875q0.421875 0.28125 0.65625 0.734375l0 3.421875q-0.234375 0.484375 -0.65625 0.78125q-0.421875 0.28125 -1.046875 0.28125q-0.53125 0 -0.90625 -0.21875q-0.375 -0.21875 -0.625 -0.578125q-0.234375 -0.375 -0.359375 -0.859375q-0.109375 -0.484375 -0.109375 -1.015625z" fill-rule="nonzero"/><path fill="#999999" d="m683.4408 84.69992l6.03125 -2.59375l0 -1.0l-6.03125 -2.578125l0 1.296875l4.421875 1.640625l0.40625 0.140625l-0.40625 0.109375l-4.421875 1.671875l0 1.3125z" fill-rule="nonzero"/><path fill="#000000" fill-opacity="0.0" d="m631.2152 156.82152l80.3465 0l0 36.346466l-80.3465 0z" fill-rule="evenodd"/><path fill="#999999" d="m647.16833 177.91777l0 -1.34375l-4.171875 -1.609375l-0.375 -0.125l0.375 -0.109375l4.171875 -1.640625l0 -1.34375l-5.796875 2.59375l0 0.984375l5.796875 2.59375z" fill-rule="nonzero"/><path fill="#990055" d="m651.47595 180.1209l4.140625 -10.8125l-1.125 0l-4.15625 10.8125l1.140625 0zm7.995117 -7.15625l0 -4.203125l-1.265625 0l0 10.5l1.265625 0l0 -5.375q0.140625 -0.21875 0.3125 -0.390625q0.171875 -0.1875 0.375 -0.328125q0.265625 -0.171875 0.5625 -0.265625q0.3125 -0.09375 0.65625 -0.09375q0.421875 -0.015625 0.734375 0.109375q0.328125 0.109375 0.546875 0.359375q0.1875 0.21875 0.28125 0.546875q0.109375 0.328125 0.109375 0.765625l0 4.671875l1.265625 0l0 -4.65625q0 -0.75 -0.1875 -1.28125q-0.171875 -0.546875 -0.5 -0.90625q-0.34375 -0.359375 -0.828125 -0.515625q-0.46875 -0.171875 -1.046875 -0.171875q-0.4375 0 -0.84375 0.125q-0.390625 0.125 -0.71875 0.359375q-0.203125 0.15625 -0.390625 0.34375q-0.171875 0.1875 -0.328125 0.40625zm10.401367 6.4375q1.078125 0 1.8125 -0.4375q0.734375 -0.4375 1.109375 -1.0l-0.765625 -0.59375q-0.359375 0.453125 -0.890625 0.734375q-0.515625 0.265625 -1.1875 0.265625q-0.515625 0 -0.9375 -0.1875q-0.421875 -0.203125 -0.734375 -0.53125q-0.28125 -0.3125 -0.453125 -0.71875q-0.171875 -0.421875 -0.21875 -0.953125l0 -0.0625l5.28125 0l0 -0.5625q0 -0.765625 -0.203125 -1.421875q-0.1875 -0.671875 -0.578125 -1.171875q-0.390625 -0.484375 -1.0 -0.75q-0.59375 -0.28125 -1.390625 -0.28125q-0.640625 0 -1.25 0.265625q-0.59375 0.25 -1.078125 0.734375q-0.46875 0.5 -0.765625 1.203125q-0.28125 0.703125 -0.28125 1.609375l0 0.28125q0 0.765625 0.25 1.421875q0.265625 0.65625 0.734375 1.140625q0.46875 0.484375 1.109375 0.75q0.65625 0.265625 1.4375 0.265625zm-0.15625 -6.640625q0.484375 0 0.828125 0.1875q0.359375 0.171875 0.59375 0.453125q0.234375 0.296875 0.359375 0.6875q0.125 0.390625 0.125 0.734375l0 0.0625l-3.96875 0q0.0625 -0.515625 0.25 -0.90625q0.203125 -0.390625 0.46875 -0.671875q0.28125 -0.265625 0.609375 -0.40625q0.34375 -0.140625 0.734375 -0.140625zm10.151367 6.5l1.328125 0l0 -0.109375q-0.125 -0.3125 -0.203125 -0.71875q-0.0625 -0.421875 -0.0625 -0.78125l0 -3.4375q0 -0.625 -0.234375 -1.09375q-0.21875 -0.46875 -0.609375 -0.78125q-0.390625 -0.296875 -0.9375 -0.453125q-0.53125 -0.15625 -1.171875 -0.15625q-0.6875 0 -1.234375 0.1875q-0.53125 0.1875 -0.90625 0.5q-0.390625 0.3125 -0.59375 0.703125q-0.203125 0.390625 -0.203125 0.796875l1.265625 0q0 -0.234375 0.109375 -0.453125q0.125 -0.21875 0.328125 -0.375q0.203125 -0.15625 0.5 -0.25q0.296875 -0.09375 0.671875 -0.09375q0.40625 0 0.71875 0.109375q0.328125 0.09375 0.5625 0.28125q0.21875 0.1875 0.34375 0.453125q0.125 0.265625 0.125 0.609375l0 0.578125l-1.375 0q-0.78125 0 -1.40625 0.15625q-0.625 0.140625 -1.0625 0.4375q-0.453125 0.3125 -0.703125 0.78125q-0.234375 0.453125 -0.234375 1.0625q0 0.453125 0.171875 0.859375q0.1875 0.40625 0.53125 0.6875q0.328125 0.296875 0.796875 0.46875q0.484375 0.171875 1.0625 0.171875q0.375 0 0.6875 -0.078125q0.328125 -0.078125 0.609375 -0.203125q0.28125 -0.140625 0.515625 -0.296875q0.234375 -0.171875 0.421875 -0.375q0.03125 0.234375 0.0625 0.453125q0.046875 0.21875 0.125 0.359375zm-2.234375 -0.96875q-0.359375 0 -0.640625 -0.09375q-0.28125 -0.09375 -0.46875 -0.265625q-0.1875 -0.15625 -0.28125 -0.390625q-0.09375 -0.234375 -0.09375 -0.515625q0 -0.28125 0.109375 -0.5q0.109375 -0.234375 0.3125 -0.390625q0.28125 -0.234375 0.765625 -0.34375q0.5 -0.125 1.15625 -0.125l1.171875 0l0 1.5q-0.109375 0.21875 -0.296875 0.421875q-0.1875 0.203125 -0.453125 0.359375q-0.265625 0.15625 -0.59375 0.25q-0.3125 0.09375 -0.6875 0.09375zm5.541992 -2.796875l0 0.15625q0 0.78125 0.203125 1.46875q0.21875 0.6875 0.59375 1.203125q0.390625 0.5 0.9375 0.796875q0.546875 0.28125 1.203125 0.28125q0.6875 0 1.203125 -0.234375q0.515625 -0.234375 0.875 -0.6875l0.0625 0.78125l1.15625 0l0 -10.5l-1.265625 0l0 3.828125q-0.359375 -0.421875 -0.859375 -0.640625q-0.484375 -0.21875 -1.15625 -0.21875q-0.671875 0 -1.21875 0.28125q-0.546875 0.28125 -0.9375 0.78125q-0.375 0.5 -0.59375 1.1875q-0.203125 0.6875 -0.203125 1.515625zm1.265625 0.15625l0 -0.15625q0 -0.53125 0.109375 -1.015625q0.125 -0.5 0.359375 -0.875q0.25 -0.359375 0.625 -0.578125q0.375 -0.21875 0.90625 -0.21875q0.625 0 1.046875 0.296875q0.421875 0.28125 0.65625 0.734375l0 3.421875q-0.234375 0.484375 -0.65625 0.78125q-0.421875 0.28125 -1.046875 0.28125q-0.53125 0 -0.90625 -0.21875q-0.375 -0.21875 -0.625 -0.578125q-0.234375 -0.375 -0.359375 -0.859375q-0.109375 -0.484375 -0.109375 -1.015625z" fill-rule="nonzero"/><path fill="#999999" d="m691.84216 177.91777l6.03125 -2.59375l0 -1.0l-6.03125 -2.578125l0 1.296875l4.421875 1.640625l0.40625 0.140625l-0.40625 0.109375l-4.421875 1.671875l0 1.3125z" fill-rule="nonzero"/><path fill="#000000" fill-opacity="0.0" d="m633.36743 199.55118l80.3465 0l0 36.346466l-80.3465 0z" fill-rule="evenodd"/><path fill="#999999" d="m649.32056 220.64743l0 -1.34375l-4.171875 -1.609375l-0.375 -0.125l0.375 -0.109375l4.171875 -1.640625l0 -1.34375l-5.796875 2.59375l0 0.984375l5.796875 2.59375z" fill-rule="nonzero"/><path fill="#990055" d="m658.2219 218.3818l0 -0.15625q0 -0.578125 -0.09375 -1.09375q-0.09375 -0.53125 -0.28125 -0.953125q-0.171875 -0.390625 -0.40625 -0.703125q-0.234375 -0.3125 -0.53125 -0.53125q-0.328125 -0.234375 -0.734375 -0.359375q-0.390625 -0.125 -0.875 -0.125q-0.375 0 -0.703125 0.078125q-0.328125 0.0625 -0.609375 0.21875q-0.21875 0.109375 -0.40625 0.28125q-0.1875 0.15625 -0.34375 0.34375l0 -3.890625l-1.265625 0l0 10.5l1.15625 0l0.0625 -0.84375q0.125 0.15625 0.25 0.296875q0.140625 0.125 0.296875 0.234375q0.3125 0.21875 0.703125 0.328125q0.390625 0.125 0.875 0.125q0.421875 0 0.78125 -0.109375q0.359375 -0.09375 0.65625 -0.28125q0.421875 -0.265625 0.71875 -0.671875q0.296875 -0.40625 0.46875 -0.921875q0.140625 -0.390625 0.203125 -0.828125q0.078125 -0.453125 0.078125 -0.9375zm-1.265625 -0.15625l0 0.15625q0 0.328125 -0.046875 0.640625q-0.03125 0.3125 -0.125 0.578125q-0.109375 0.359375 -0.296875 0.65625q-0.171875 0.296875 -0.453125 0.484375q-0.203125 0.15625 -0.46875 0.234375q-0.25 0.078125 -0.5625 0.078125q-0.328125 0 -0.609375 -0.078125q-0.265625 -0.09375 -0.484375 -0.25q-0.21875 -0.15625 -0.390625 -0.359375q-0.171875 -0.21875 -0.28125 -0.453125l0 -3.234375q0.109375 -0.25 0.265625 -0.453125q0.171875 -0.21875 0.390625 -0.375q0.21875 -0.15625 0.484375 -0.234375q0.28125 -0.078125 0.609375 -0.078125q0.296875 0 0.546875 0.0625q0.25 0.0625 0.4375 0.1875q0.296875 0.171875 0.484375 0.484375q0.203125 0.296875 0.328125 0.65625q0.09375 0.296875 0.125 0.625q0.046875 0.328125 0.046875 0.671875zm3.0419922 0l0 0.15625q0 0.796875 0.234375 1.484375q0.234375 0.671875 0.671875 1.1875q0.4375 0.5 1.0625 0.796875q0.625 0.28125 1.40625 0.28125q0.78125 0 1.40625 -0.28125q0.625 -0.296875 1.0625 -0.796875q0.421875 -0.515625 0.65625 -1.1875q0.234375 -0.6875 0.234375 -1.484375l0 -0.15625q0 -0.796875 -0.234375 -1.484375q-0.234375 -0.6875 -0.65625 -1.203125q-0.4375 -0.5 -1.0625 -0.78125q-0.625 -0.296875 -1.421875 -0.296875q-0.78125 0 -1.40625 0.296875q-0.609375 0.28125 -1.046875 0.78125q-0.4375 0.515625 -0.671875 1.203125q-0.234375 0.6875 -0.234375 1.484375zm1.265625 0.15625l0 -0.15625q0 -0.546875 0.125 -1.03125q0.140625 -0.5 0.40625 -0.875q0.265625 -0.375 0.65625 -0.59375q0.390625 -0.234375 0.90625 -0.234375q0.53125 0 0.921875 0.234375q0.390625 0.21875 0.65625 0.59375q0.265625 0.375 0.390625 0.875q0.140625 0.484375 0.140625 1.03125l0 0.15625q0 0.546875 -0.140625 1.046875q-0.125 0.484375 -0.375 0.859375q-0.265625 0.375 -0.671875 0.59375q-0.390625 0.21875 -0.90625 0.21875q-0.53125 0 -0.921875 -0.21875q-0.390625 -0.21875 -0.65625 -0.59375q-0.265625 -0.375 -0.40625 -0.859375q-0.125 -0.5 -0.125 -1.046875zm7.260742 -0.15625l0 0.15625q0 0.78125 0.203125 1.46875q0.21875 0.6875 0.59375 1.203125q0.390625 0.5 0.9375 0.796875q0.546875 0.28125 1.203125 0.28125q0.6875 0 1.203125 -0.234375q0.515625 -0.234375 0.875 -0.6875l0.0625 0.78125l1.15625 0l0 -10.5l-1.265625 0l0 3.828125q-0.359375 -0.421875 -0.859375 -0.640625q-0.484375 -0.21875 -1.15625 -0.21875q-0.671875 0 -1.21875 0.28125q-0.546875 0.28125 -0.9375 0.78125q-0.375 0.5 -0.59375 1.1875q-0.203125 0.6875 -0.203125 1.515625zm1.265625 0.15625l0 -0.15625q0 -0.53125 0.109375 -1.015625q0.125 -0.5 0.359375 -0.875q0.25 -0.359375 0.625 -0.578125q0.375 -0.21875 0.90625 -0.21875q0.625 0 1.046875 0.296875q0.421875 0.28125 0.65625 0.734375l0 3.421875q-0.234375 0.484375 -0.65625 0.78125q-0.421875 0.28125 -1.046875 0.28125q-0.53125 0 -0.90625 -0.21875q-0.375 -0.21875 -0.625 -0.578125q-0.234375 -0.375 -0.359375 -0.859375q-0.109375 -0.484375 -0.109375 -1.015625zm7.963867 6.59375q0.5 0 0.875 -0.1875q0.390625 -0.171875 0.6875 -0.453125q0.28125 -0.265625 0.484375 -0.59375q0.203125 -0.328125 0.328125 -0.609375l3.75 -8.53125l-1.40625 0l-1.90625 4.796875l-0.359375 0.859375l-0.328125 -0.890625l-2.03125 -4.765625l-1.40625 0l3.1875 7.046875l-0.515625 0.984375q-0.0625 0.125 -0.1875 0.34375q-0.109375 0.21875 -0.28125 0.40625q-0.171875 0.203125 -0.390625 0.34375q-0.203125 0.140625 -0.46875 0.140625q-0.09375 0 -0.265625 -0.015625q-0.171875 0 -0.34375 -0.015625l-0.203125 1.03125q0.125 0.03125 0.359375 0.0625q0.25 0.046875 0.421875 0.046875z" fill-rule="nonzero"/><path fill="#999999" d="m685.593 220.64743l6.03125 -2.59375l0 -1.0l-6.03125 -2.578125l0 1.296875l4.421875 1.640625l0.40625 0.140625l-0.40625 0.109375l-4.421875 1.671875l0 1.3125z" fill-rule="nonzero"/><path fill="#000000" fill-opacity="0.0" d="m633.36743 286.48032l80.3465 0l0 36.346466l-80.3465 0z" fill-rule="evenodd"/><path fill="#999999" d="m649.32056 307.57657l0 -1.34375l-4.171875 -1.609375l-0.375 -0.125l0.375 -0.109375l4.171875 -1.640625l0 -1.34375l-5.796875 2.59375l0 0.984375l5.796875 2.59375z" fill-rule="nonzero"/><path fill="#990055" d="m653.6282 309.7797l4.140625 -10.8125l-1.125 0l-4.15625 10.8125l1.140625 0zm12.995117 -4.46875l0 -0.15625q0 -0.578125 -0.09375 -1.09375q-0.09375 -0.53125 -0.28125 -0.953125q-0.171875 -0.390625 -0.40625 -0.703125q-0.234375 -0.3125 -0.53125 -0.53125q-0.328125 -0.234375 -0.734375 -0.359375q-0.390625 -0.125 -0.875 -0.125q-0.375 0 -0.703125 0.078125q-0.328125 0.0625 -0.609375 0.21875q-0.21875 0.109375 -0.40625 0.28125q-0.1875 0.15625 -0.34375 0.34375l0 -3.890625l-1.265625 0l0 10.5l1.15625 0l0.0625 -0.84375q0.125 0.15625 0.25 0.296875q0.140625 0.125 0.296875 0.234375q0.3125 0.21875 0.703125 0.328125q0.390625 0.125 0.875 0.125q0.421875 0 0.78125 -0.109375q0.359375 -0.09375 0.65625 -0.28125q0.421875 -0.265625 0.71875 -0.671875q0.296875 -0.40625 0.46875 -0.921875q0.140625 -0.390625 0.203125 -0.828125q0.078125 -0.453125 0.078125 -0.9375zm-1.265625 -0.15625l0 0.15625q0 0.328125 -0.046875 0.640625q-0.03125 0.3125 -0.125 0.578125q-0.109375 0.359375 -0.296875 0.65625q-0.171875 0.296875 -0.453125 0.484375q-0.203125 0.15625 -0.46875 0.234375q-0.25 0.078125 -0.5625 0.078125q-0.328125 0 -0.609375 -0.078125q-0.265625 -0.09375 -0.484375 -0.25q-0.21875 -0.15625 -0.390625 -0.359375q-0.171875 -0.21875 -0.28125 -0.453125l0 -3.234375q0.109375 -0.25 0.265625 -0.453125q0.171875 -0.21875 0.390625 -0.375q0.21875 -0.15625 0.484375 -0.234375q0.28125 -0.078125 0.609375 -0.078125q0.296875 0 0.546875 0.0625q0.25 0.0625 0.4375 0.1875q0.296875 0.171875 0.484375 0.484375q0.203125 0.296875 0.328125 0.65625q0.09375 0.296875 0.125 0.625q0.046875 0.328125 0.046875 0.671875zm3.0419922 0l0 0.15625q0 0.796875 0.234375 1.484375q0.234375 0.671875 0.671875 1.1875q0.4375 0.5 1.0625 0.796875q0.625 0.28125 1.40625 0.28125q0.78125 0 1.40625 -0.28125q0.625 -0.296875 1.0625 -0.796875q0.421875 -0.515625 0.65625 -1.1875q0.234375 -0.6875 0.234375 -1.484375l0 -0.15625q0 -0.796875 -0.234375 -1.484375q-0.234375 -0.6875 -0.65625 -1.203125q-0.4375 -0.5 -1.0625 -0.78125q-0.625 -0.296875 -1.421875 -0.296875q-0.78125 0 -1.40625 0.296875q-0.609375 0.28125 -1.046875 0.78125q-0.4375 0.515625 -0.671875 1.203125q-0.234375 0.6875 -0.234375 1.484375zm1.265625 0.15625l0 -0.15625q0 -0.546875 0.125 -1.03125q0.140625 -0.5 0.40625 -0.875q0.265625 -0.375 0.65625 -0.59375q0.390625 -0.234375 0.90625 -0.234375q0.53125 0 0.921875 0.234375q0.390625 0.21875 0.65625 0.59375q0.265625 0.375 0.390625 0.875q0.140625 0.484375 0.140625 1.03125l0 0.15625q0 0.546875 -0.140625 1.046875q-0.125 0.484375 -0.375 0.859375q-0.265625 0.375 -0.671875 0.59375q-0.390625 0.21875 -0.90625 0.21875q-0.53125 0 -0.921875 -0.21875q-0.390625 -0.21875 -0.65625 -0.59375q-0.265625 -0.375 -0.40625 -0.859375q-0.125 -0.5 -0.125 -1.046875zm7.260742 -0.15625l0 0.15625q0 0.78125 0.203125 1.46875q0.21875 0.6875 0.59375 1.203125q0.390625 0.5 0.9375 0.796875q0.546875 0.28125 1.203125 0.28125q0.6875 0 1.203125 -0.234375q0.515625 -0.234375 0.875 -0.6875l0.0625 0.78125l1.15625 0l0 -10.5l-1.265625 0l0 3.828125q-0.359375 -0.421875 -0.859375 -0.640625q-0.484375 -0.21875 -1.15625 -0.21875q-0.671875 0 -1.21875 0.28125q-0.546875 0.28125 -0.9375 0.78125q-0.375 0.5 -0.59375 1.1875q-0.203125 0.6875 -0.203125 1.515625zm1.265625 0.15625l0 -0.15625q0 -0.53125 0.109375 -1.015625q0.125 -0.5 0.359375 -0.875q0.25 -0.359375 0.625 -0.578125q0.375 -0.21875 0.90625 -0.21875q0.625 0 1.046875 0.296875q0.421875 0.28125 0.65625 0.734375l0 3.421875q-0.234375 0.484375 -0.65625 0.78125q-0.421875 0.28125 -1.046875 0.28125q-0.53125 0 -0.90625 -0.21875q-0.375 -0.21875 -0.625 -0.578125q-0.234375 -0.375 -0.359375 -0.859375q-0.109375 -0.484375 -0.109375 -1.015625zm7.963867 6.59375q0.5 0 0.875 -0.1875q0.390625 -0.171875 0.6875 -0.453125q0.28125 -0.265625 0.484375 -0.59375q0.203125 -0.328125 0.328125 -0.609375l3.75 -8.53125l-1.40625 0l-1.90625 4.796875l-0.359375 0.859375l-0.328125 -0.890625l-2.03125 -4.765625l-1.40625 0l3.1875 7.046875l-0.515625 0.984375q-0.0625 0.125 -0.1875 0.34375q-0.109375 0.21875 -0.28125 0.40625q-0.171875 0.203125 -0.390625 0.34375q-0.203125 0.140625 -0.46875 0.140625q-0.09375 0 -0.265625 -0.015625q-0.171875 0 -0.34375 -0.015625l-0.203125 1.03125q0.125 0.03125 0.359375 0.0625q0.25 0.046875 0.421875 0.046875z" fill-rule="nonzero"/><path fill="#999999" d="m693.9944 307.57657l6.03125 -2.59375l0 -1.0l-6.03125 -2.578125l0 1.296875l4.421875 1.640625l0.40625 0.140625l-0.40625 0.109375l-4.421875 1.671875l0 1.3125z" fill-rule="nonzero"/></g></svg>