<svg version="1.1" viewBox="0.0 0.0 961.0708661417323 386.4278215223097" fill="none" stroke="none" stroke-linecap="square" stroke-miterlimit="10" xmlns:xlink="http://www.w3.org/1999/xlink" xmlns="http://www.w3.org/2000/svg"><clipPath id="p.0"><path d="m0 0l961.07086 0l0 386.42783l-961.07086 0l0 -386.42783z" clip-rule="nonzero"/></clipPath><g clip-path="url(#p.0)"><path fill="#000000" fill-opacity="0.0" d="m0 0l961.07086 0l0 386.42783l-961.07086 0z" fill-rule="evenodd"/><path fill="#cfe2f3" d="m134.04462 322.81497l194.74017 0l0 -192.8666l-66.34604 -66.346016l-128.39413 0z" fill-rule="evenodd"/><path fill="#a5b4c2" d="m262.43875 63.602364l13.269196 53.07682l53.076843 13.269196z" fill-rule="evenodd"/><path fill="#000000" fill-opacity="0.0" d="m262.43875 63.602364l13.269196 53.07682l53.076843 13.269196l-66.34604 -66.346016l-128.39413 0l0 259.21262l194.74017 0l0 -192.8666" fill-rule="evenodd"/><path stroke="#000000" stroke-width="1.0" stroke-linejoin="round" stroke-linecap="butt" d="m262.43875 63.602364l13.269196 53.07682l53.076843 13.269196l-66.34604 -66.346016l-128.39413 0l0 259.21262l194.74017 0l0 -192.8666" fill-rule="evenodd"/><path fill="#cfe2f3" d="m631.2152 192.01181l194.74017 0l0 -64.20473l-64.20471 -64.20472l-130.53546 0z" fill-rule="evenodd"/><path fill="#a5b4c2" d="m761.7507 63.602364l12.840942 51.363777l51.36377 12.840942z" fill-rule="evenodd"/><path fill="#000000" fill-opacity="0.0" d="m761.7507 63.602364l12.840942 51.363777l51.36377 12.840942l-64.20471 -64.20472l-130.53546 0l0 128.40945l194.74017 0l0 -64.20473" fill-rule="evenodd"/><path stroke="#000000" stroke-width="1.0" stroke-linejoin="round" stroke-linecap="butt" d="m761.7507 63.602364l12.840942 51.363777l51.36377 12.840942l-64.20471 -64.20472l-130.53546 0l0 128.40945l194.74017 0l0 -64.20473" fill-rule="evenodd"/><path fill="#cfe2f3" d="m633.36743 199.54987l192.59845 0l0 123.275604l-192.59845 0z" fill-rule="evenodd"/><path stroke="#000000" stroke-width="1.0" stroke-linejoin="round" stroke-linecap="butt" d="m633.36743 199.54987l192.59845 0l0 123.275604l-192.59845 0z" fill-rule="evenodd"/><path fill="#e69138" d="m393.38583 171.55511l129.92123 0l0 -21.653534l43.30713 43.307083l-43.30713 43.307083l0 -21.65355l-129.92123 0z" fill-rule="evenodd"/><path fill="#000000" fill-opacity="0.0" d="m191.24147 172.20604l80.34645 0l0 45.259842l-80.34645 0z" fill-rule="evenodd"/><path fill="#000000" d="m203.36462 201.68604l0 -15.265625l3.078125 0l0 6.0l6.046875 0l0 -6.0l3.078125 0l0 15.265625l-3.078125 0l0 -6.671875l-6.046875 0l0 6.671875l-3.078125 0zm18.824371 0l0 -12.6875l-4.53125 0l0 -2.578125l12.140625 0l0 2.578125l-4.515625 0l0 12.6875l-3.09375 0zm9.559326 0l0 -15.265625l4.609375 0l2.765625 10.40625l2.734375 -10.40625l4.625 0l0 15.265625l-2.859375 0l0 -12.015625l-3.03125 12.015625l-2.96875 0l-3.015625 -12.015625l0 12.015625l-2.859375 0zm17.891495 0l0 -15.140625l3.078125 0l0 12.5625l7.6562347 0l0 2.578125l-10.73436 0z" fill-rule="nonzero"/><path fill="#000000" fill-opacity="0.0" d="m688.41205 105.17716l80.3465 0l0 45.25985l-80.3465 0z" fill-rule="evenodd"/><path fill="#000000" d="m699.9312 134.65717l0 -15.265625l3.078125 0l0 6.0l6.046875 0l0 -6.0l3.078125 0l0 15.265625l-3.078125 0l0 -6.671875l-6.046875 0l0 6.671875l-3.078125 0zm15.386841 0l0 -15.265625l11.328125 0l0 2.578125l-8.234375 0l0 3.390625l7.65625 0l0 2.5625l-7.65625 0l0 4.15625l8.515625 0l0 2.578125l-11.609375 0zm27.991333 0l-3.34375 0l-1.328125 -3.46875l-6.109375 0l-1.265625 3.46875l-3.265625 0l5.953125 -15.265625l3.25 0l6.109375 15.265625zm-5.671875 -6.046875l-2.09375 -5.65625l-2.0625 5.65625l4.15625 0zm7.308777 -9.21875l5.625 0q1.90625 0 2.90625 0.296875q1.34375 0.390625 2.296875 1.40625q0.96875 1.0 1.46875 2.46875q0.5 1.453125 0.5 3.609375q0 1.875 -0.46875 3.25q-0.578125 1.65625 -1.640625 2.6875q-0.796875 0.78125 -2.15625 1.21875q-1.03125 0.328125 -2.734375 0.328125l-5.796875 0l0 -15.265625zm3.078125 2.578125l0 10.109375l2.296875 0q1.296875 0 1.875 -0.140625q0.75 -0.1875 1.234375 -0.625q0.5 -0.453125 0.8125 -1.484375q0.3125 -1.03125 0.3125 -2.796875q0 -1.765625 -0.3125 -2.703125q-0.3125 -0.953125 -0.875 -1.484375q-0.5625 -0.53125 -1.421875 -0.71875q-0.65625 -0.15625 -2.53125 -0.15625l-1.390625 0z" fill-rule="nonzero"/><path fill="#000000" fill-opacity="0.0" d="m678.5066 238.55905l100.15747 0l0 45.259857l-100.15747 0z" fill-rule="evenodd"/><path fill="#000000" d="m699.3376 252.77342l6.109375 0q1.8125 0 2.6875 0.15625q0.890625 0.140625 1.59375 0.625q0.703125 0.484375 1.171875 1.28125q0.46875 0.796875 0.46875 1.7812653q0 1.0625 -0.578125 1.96875q-0.578125 0.890625 -1.5625 1.34375q1.390625 0.40625 2.140625 1.390625q0.75 0.96875 0.75 2.296875q0 1.03125 -0.484375 2.015625q-0.484375 0.984375 -1.328125 1.578125q-0.828125 0.59375 -2.046875 0.71875q-0.78125 0.09375 -3.71875 0.109375l-5.203125 0l0 -15.26564zm3.078125 2.546875l0 3.5156403l2.03125 0q1.796875 0 2.234375 -0.046875q0.796875 -0.09375 1.25 -0.546875q0.453125 -0.453125 0.453125 -1.1875q0 -0.703125 -0.390625 -1.1406403q-0.390625 -0.453125 -1.171875 -0.546875q-0.453125 -0.046875 -2.625 -0.046875l-1.78125 0zm0 6.0625153l0 4.078125l2.859375 0q1.671875 0 2.109375 -0.09375q0.6875 -0.125 1.109375 -0.609375q0.4375 -0.484375 0.4375 -1.296875q0 -0.6875 -0.328125 -1.15625q-0.328125 -0.484375 -0.96875 -0.703125q-0.625 -0.21875 -2.71875 -0.21875l-2.5 0zm11.683777 -0.890625q0 -2.328125 0.703125 -3.90625q0.515625 -1.1718903 1.421875 -2.0937653q0.90625 -0.921875 1.96875 -1.375q1.4375 -0.609375 3.296875 -0.609375q3.375 0 5.390625 2.09375q2.03125 2.0937653 2.03125 5.8281403q0 3.6875 -2.015625 5.78125q-2.0 2.09375 -5.359375 2.09375q-3.40625 0 -5.421875 -2.078125q-2.015625 -2.078125 -2.015625 -5.734375zm3.1875 -0.09375q0 2.59375 1.1875 3.9375q1.203125 1.328125 3.046875 1.328125q1.84375 0 3.015625 -1.328125q1.1875 -1.328125 1.1875 -3.984375q0 -2.625 -1.15625 -3.90625q-1.140625 -1.2968903 -3.046875 -1.2968903q-1.90625 0 -3.078125 1.3125153q-1.15625 1.296875 -1.15625 3.9375zm14.027222 -7.6250153l5.625 0q1.90625 0 2.90625 0.296875q1.34375 0.390625 2.296875 1.40625q0.96875 1.0 1.46875 2.4687653q0.5 1.453125 0.5 3.609375q0 1.875 -0.46875 3.25q-0.578125 1.65625 -1.640625 2.6875q-0.796875 0.78125 -2.15625 1.21875q-1.03125 0.328125 -2.734375 0.328125l-5.796875 0l0 -15.26564zm3.078125 2.578125l0 10.10939l2.296875 0q1.296875 0 1.875 -0.140625q0.75 -0.1875 1.234375 -0.625q0.5 -0.453125 0.8125 -1.484375q0.3125 -1.03125 0.3125 -2.796875q0 -1.765625 -0.3125 -2.703125q-0.3125 -0.953125 -0.875 -1.484375q-0.5625 -0.53126526 -1.421875 -0.71876526q-0.65625 -0.15625 -2.53125 -0.15625l-1.390625 0zm16.339966 12.687515l0 -6.421875l-5.59375 -8.843765l3.609375 0l3.59375 6.0312653l3.515625 -6.0312653l3.5625 0l-5.609375 8.85939l0 6.40625l-3.078125 0z" fill-rule="nonzero"/></g></svg>