<svg version="1.1" viewBox="0.0 0.0 893.5958005249344 430.46194225721786" fill="none" stroke="none" stroke-linecap="square" stroke-miterlimit="10" xmlns:xlink="http://www.w3.org/1999/xlink" xmlns="http://www.w3.org/2000/svg"><clipPath id="p.0"><path d="m0 0l893.5958 0l0 430.46194l-893.5958 0l0 -430.46194z" clip-rule="nonzero"/></clipPath><g clip-path="url(#p.0)"><path fill="#000000" fill-opacity="0.0" d="m0 0l893.5958 0l0 430.46194l-893.5958 0z" fill-rule="evenodd"/><path fill="#000000" fill-opacity="0.0" d="m82.2336 186.14436l726.29926 0l0 58.173218l-726.29926 0z" fill-rule="evenodd"/><path fill="#999999" d="m107.13985 222.80186l0 -3.0625l-9.5625 -3.6875l-0.828125 -0.28125l0.828125 -0.265625l9.5625 -3.75l0 -3.0625l-13.25 5.90625l0 2.28125l13.25 5.921875z" fill-rule="nonzero"/><path fill="#990055" d="m124.26485 225.86436l3.015625 0l0 -0.25q-0.28125 -0.703125 -0.4375 -1.640625q-0.15625 -0.953125 -0.15625 -1.796875l0 -7.859375q0 -1.421875 -0.515625 -2.484375q-0.515625 -1.0625 -1.40625 -1.78125q-0.90625 -0.703125 -2.140625 -1.046875q-1.234375 -0.359375 -2.671875 -0.359375q-1.578125 0 -2.828125 0.4375q-1.234375 0.4375 -2.09375 1.140625q-0.875 0.71875 -1.34375 1.609375q-0.453125 0.890625 -0.46875 1.8125l2.90625 0q0 -0.53125 0.25 -1.015625q0.265625 -0.5 0.734375 -0.859375q0.46875 -0.359375 1.140625 -0.578125q0.6875 -0.21875 1.546875 -0.21875q0.921875 0 1.65625 0.234375q0.75 0.234375 1.265625 0.65625q0.515625 0.4375 0.796875 1.046875q0.28125 0.609375 0.28125 1.375l0 1.328125l-3.15625 0q-1.765625 0 -3.203125 0.34375q-1.421875 0.34375 -2.4375 1.03125q-1.015625 0.703125 -1.578125 1.75q-0.546875 1.046875 -0.546875 2.4375q0 1.0625 0.40625 1.984375q0.421875 0.90625 1.1875 1.5625q0.75 0.671875 1.828125 1.0625q1.09375 0.390625 2.4375 0.390625q0.828125 0 1.5625 -0.171875q0.734375 -0.171875 1.390625 -0.46875q0.640625 -0.296875 1.171875 -0.6875q0.546875 -0.390625 0.984375 -0.828125q0.046875 0.53125 0.140625 1.03125q0.109375 0.484375 0.28125 0.8125zm-5.109375 -2.203125q-0.84375 0 -1.484375 -0.21875q-0.640625 -0.21875 -1.0625 -0.609375q-0.421875 -0.375 -0.640625 -0.90625q-0.203125 -0.53125 -0.203125 -1.15625q0 -0.65625 0.234375 -1.171875q0.25 -0.515625 0.71875 -0.890625q0.65625 -0.53125 1.765625 -0.78125q1.125 -0.265625 2.625 -0.265625l2.6875 0l0 3.421875q-0.25 0.5 -0.6875 0.96875q-0.4375 0.453125 -1.03125 0.8125q-0.609375 0.359375 -1.34375 0.578125q-0.734375 0.21875 -1.578125 0.21875z" fill-rule="nonzero"/><path fill="#669900" d="m154.45235 211.47374l0 -9.609375l-2.890625 0l0 24.0l2.890625 0l0 -12.28125q0.3125 -0.5 0.703125 -0.90625q0.40625 -0.421875 0.875 -0.734375q0.59375 -0.40625 1.296875 -0.625q0.703125 -0.21875 1.484375 -0.21875q0.953125 -0.015625 1.6875 0.265625q0.734375 0.265625 1.21875 0.8125q0.453125 0.5 0.6875 1.265625q0.234375 0.75 0.234375 1.75l0 10.671875l2.890625 0l0 -10.640625q0 -1.703125 -0.421875 -2.9375q-0.40625 -1.25 -1.171875 -2.0625q-0.765625 -0.8125 -1.859375 -1.1875q-1.078125 -0.390625 -2.40625 -0.390625q-1.015625 0.015625 -1.921875 0.296875q-0.890625 0.28125 -1.640625 0.828125q-0.46875 0.328125 -0.890625 0.765625q-0.421875 0.421875 -0.765625 0.9375zm27.390625 -2.828125q-1.84375 0 -3.296875 0.8125q-1.4375 0.796875 -2.46875 2.1875l-0.015625 -0.421875l-0.125 -2.265625l-2.75 0l0 16.90625l2.90625 0l0 -10.84375q0.28125 -0.78125 0.703125 -1.40625q0.4375 -0.640625 1.015625 -1.078125q0.640625 -0.5 1.5 -0.75q0.859375 -0.265625 1.921875 -0.265625q0.828125 0 1.578125 0.09375q0.765625 0.078125 1.609375 0.265625l0.390625 -2.828125q-0.4375 -0.1875 -1.3125 -0.296875q-0.859375 -0.109375 -1.65625 -0.109375zm15.59375 17.53125q2.46875 0 4.140625 -0.984375q1.6875 -1.0 2.53125 -2.28125l-1.765625 -1.375q-0.796875 1.03125 -2.0 1.65625q-1.203125 0.625 -2.75 0.625q-1.171875 0 -2.140625 -0.4375q-0.96875 -0.4375 -1.65625 -1.203125q-0.671875 -0.71875 -1.0625 -1.65625q-0.375 -0.9375 -0.484375 -2.171875l0 -0.109375l12.078125 0l0 -1.296875q0 -1.765625 -0.453125 -3.28125q-0.4375 -1.515625 -1.34375 -2.640625q-0.90625 -1.109375 -2.28125 -1.734375q-1.359375 -0.640625 -3.1875 -0.640625q-1.453125 0 -2.84375 0.59375q-1.375 0.59375 -2.453125 1.703125q-1.09375 1.125 -1.75 2.75q-0.65625 1.609375 -0.65625 3.65625l0 0.65625q0 1.765625 0.59375 3.265625q0.59375 1.5 1.65625 2.59375q1.0625 1.09375 2.546875 1.703125q1.5 0.609375 3.28125 0.609375zm-0.375 -15.15625q1.109375 0 1.90625 0.40625q0.8125 0.40625 1.34375 1.0625q0.53125 0.65625 0.828125 1.5625q0.296875 0.890625 0.296875 1.671875l0 0.140625l-9.09375 0q0.171875 -1.171875 0.59375 -2.0625q0.4375 -0.90625 1.0625 -1.53125q0.625 -0.609375 1.40625 -0.921875q0.78125 -0.328125 1.65625 -0.328125zm16.421875 14.84375l2.90625 0l0 -14.671875l6.515625 0l0 -2.234375l-6.515625 0l0 -1.1875q0 -1.0625 0.265625 -1.859375q0.28125 -0.796875 0.8125 -1.296875q0.5 -0.484375 1.25 -0.71875q0.765625 -0.25 1.75 -0.25q0.96875 0 1.8125 0.171875q0.859375 0.15625 1.5 0.375l0.34375 -2.390625q-0.40625 -0.109375 -0.796875 -0.1875q-0.390625 -0.09375 -0.78125 -0.171875q-0.59375 -0.109375 -1.203125 -0.171875q-0.609375 -0.078125 -1.234375 -0.078125q-1.5 0 -2.71875 0.421875q-1.21875 0.421875 -2.078125 1.25q-0.875 0.828125 -1.359375 2.0625q-0.46875 1.21875 -0.46875 2.84375l0 1.1875l-4.65625 0l0 2.234375l4.65625 0l0 14.671875z" fill-rule="nonzero"/><path fill="#999999" d="m242.31172 213.67686l0 -2.515625l-13.953125 0l0 2.515625l13.953125 0zm0 6.484375l0 -2.5l-13.953125 0l0 2.5l13.953125 0z" fill-rule="nonzero"/><path fill="#0077aa" d="m253.8586 203.81749l0 -2.296875l-2.828125 0l0 2.34375q0 1.34375 -0.375 2.5q-0.359375 1.15625 -1.09375 2.265625l1.578125 1.125q0.65625 -0.5625 1.15625 -1.28125q0.5 -0.71875 0.859375 -1.515625q0.34375 -0.78125 0.515625 -1.59375q0.1875 -0.8125 0.1875 -1.546875zm5.1874847 0l0 -2.296875l-2.828125 0l0 2.34375q0 1.34375 -0.37498474 2.5q-0.359375 1.15625 -1.09375 2.265625l1.5781097 1.125q0.65625 -0.5625 1.15625 -1.28125q0.5 -0.71875 0.859375 -1.515625q0.34375 -0.78125 0.515625 -1.59375q0.1875 -0.8125 0.1875 -1.546875zm9.359375 22.046875l2.28125 0l2.609375 -10.359375l0.421875 -2.625l0.4375 2.625l2.640625 10.359375l2.28125 0l3.59375 -16.90625l-2.5625 0l-1.875 10.78125l-0.421875 2.65625l-0.453125 -2.65625l-2.6875 -10.78125l-1.859375 0l-2.703125 10.78125l-0.421875 2.421875l-0.34375 -2.421875l-1.96875 -10.78125l-2.5625 0l3.59375 16.90625zm19.203125 0l2.28125 0l2.609375 -10.359375l0.421875 -2.625l0.4375 2.625l2.640625 10.359375l2.28125 0l3.59375 -16.90625l-2.5625 0l-1.875 10.78125l-0.421875 2.65625l-0.453125 -2.65625l-2.6875 -10.78125l-1.859375 0l-2.703125 10.78125l-0.421875 2.421875l-0.34375 -2.421875l-1.96875 -10.78125l-2.5625 0l3.59375 16.90625zm19.203125 0l2.28125 0l2.609375 -10.359375l0.421875 -2.625l0.4375 2.625l2.640625 10.359375l2.28125 0l3.59375 -16.90625l-2.5625 0l-1.875 10.78125l-0.421875 2.65625l-0.453125 -2.65625l-2.6875 -10.78125l-1.859375 0l-2.703125 10.78125l-0.421875 2.421875l-0.34375 -2.421875l-1.96875 -10.78125l-2.5625 0l3.59375 16.90625zm22.609375 -1.875q0 0.90625 0.5625 1.546875q0.578125 0.625 1.703125 0.625q1.109375 0 1.703125 -0.625q0.59375 -0.625 0.59375 -1.546875q0 -0.9375 -0.59375 -1.578125q-0.578125 -0.65625 -1.703125 -0.65625q-1.140625 0 -1.703125 0.65625q-0.5625 0.65625 -0.5625 1.578125zm21.640625 2.1875q2.46875 0 4.140625 -0.984375q1.6875 -1.0 2.53125 -2.28125l-1.765625 -1.375q-0.796875 1.03125 -2.0 1.65625q-1.203125 0.625 -2.75 0.625q-1.171875 0 -2.140625 -0.4375q-0.96875 -0.4375 -1.65625 -1.203125q-0.671875 -0.71875 -1.0625 -1.65625q-0.375 -0.9375 -0.484375 -2.171875l0 -0.109375l12.078125 0l0 -1.296875q0 -1.765625 -0.453125 -3.28125q-0.4375 -1.515625 -1.34375 -2.640625q-0.90625 -1.109375 -2.28125 -1.734375q-1.359375 -0.640625 -3.1875 -0.640625q-1.453125 0 -2.84375 0.59375q-1.375 0.59375 -2.453125 1.703125q-1.09375 1.125 -1.75 2.75q-0.65625 1.609375 -0.65625 3.65625l0 0.65625q0 1.765625 0.59375 3.265625q0.59375 1.5 1.65625 2.59375q1.0625 1.09375 2.546875 1.703125q1.5 0.609375 3.28125 0.609375zm-0.375 -15.15625q1.109375 0 1.90625 0.40625q0.8125 0.40625 1.34375 1.0625q0.53125 0.65625 0.828125 1.5625q0.296875 0.890625 0.296875 1.671875l0 0.140625l-9.09375 0q0.171875 -1.171875 0.59375 -2.0625q0.4375 -0.90625 1.0625 -1.53125q0.625 -0.609375 1.40625 -0.921875q0.78125 -0.328125 1.65625 -0.328125zm19.09375 4.203125l-4.46875 -6.265625l-3.34375 0l6.296875 8.359375l-6.46875 8.546875l3.375 0l4.671875 -6.4375l4.671875 6.4375l3.34375 0l-6.46875 -8.546875l6.296875 -8.359375l-3.390625 0l-4.515625 6.265625zm19.6875 10.953125q2.46875 0 4.140625 -0.984375q1.6875 -1.0 2.53125 -2.28125l-1.765625 -1.375q-0.796875 1.03125 -2.0 1.65625q-1.203125 0.625 -2.75 0.625q-1.171875 0 -2.140625 -0.4375q-0.96875 -0.4375 -1.65625 -1.203125q-0.671875 -0.71875 -1.0625 -1.65625q-0.375 -0.9375 -0.484375 -2.171875l0 -0.109375l12.078125 0l0 -1.296875q0 -1.765625 -0.453125 -3.28125q-0.4375 -1.515625 -1.34375 -2.640625q-0.90625 -1.109375 -2.28125 -1.734375q-1.359375 -0.640625 -3.1875 -0.640625q-1.453125 0 -2.84375 0.59375q-1.375 0.59375 -2.453125 1.703125q-1.09375 1.125 -1.75 2.75q-0.65625 1.609375 -0.65625 3.65625l0 0.65625q0 1.765625 0.59375 3.265625q0.59375 1.5 1.65625 2.59375q1.0625 1.09375 2.546875 1.703125q1.5 0.609375 3.28125 0.609375zm-0.375 -15.15625q1.109375 0 1.90625 0.40625q0.8125 0.40625 1.34375 1.0625q0.53125 0.65625 0.828125 1.5625q0.296875 0.890625 0.296875 1.671875l0 0.140625l-9.09375 0q0.171875 -1.171875 0.59375 -2.0625q0.4375 -0.90625 1.0625 -1.53125q0.625 -0.609375 1.40625 -0.921875q0.78125 -0.328125 1.65625 -0.328125zm13.4375 -2.0625l-2.59375 0l0 16.90625l2.75 0l0 -13.453125q0.09375 -0.25 0.234375 -0.46875q0.15625 -0.21875 0.359375 -0.390625q0.265625 -0.21875 0.640625 -0.328125q0.390625 -0.125 0.90625 -0.125q0.46875 0 0.8125 0.125q0.359375 0.109375 0.59375 0.359375q0.25 0.265625 0.359375 0.671875q0.125 0.40625 0.125 0.9375l0 12.671875l2.75 0l0 -12.65625q0 -0.09375 0 -0.15625q0 -0.078125 0 -0.15625q0.046875 -0.390625 0.1875 -0.703125q0.140625 -0.328125 0.390625 -0.578125q0.25 -0.234375 0.625 -0.375q0.375 -0.140625 0.890625 -0.140625q0.484375 0 0.84375 0.125q0.375 0.125 0.625 0.375q0.234375 0.265625 0.359375 0.671875q0.125 0.40625 0.125 0.9375l0 12.65625l2.75 0l0 -12.625q0 -1.21875 -0.28125 -2.109375q-0.28125 -0.90625 -0.8125 -1.46875q-0.484375 -0.5 -1.1875 -0.75q-0.703125 -0.265625 -1.578125 -0.265625q-0.640625 0.015625 -1.1875 0.171875q-0.53125 0.15625 -0.96875 0.421875q-0.34375 0.234375 -0.640625 0.546875q-0.296875 0.3125 -0.515625 0.671875q-0.171875 -0.390625 -0.421875 -0.703125q-0.234375 -0.3125 -0.53125 -0.53125q-0.40625 -0.28125 -0.953125 -0.421875q-0.53125 -0.15625 -1.203125 -0.15625q-1.1875 0.015625 -2.03125 0.515625q-0.828125 0.5 -1.34375 1.390625l-0.078125 -1.59375zm17.859375 23.40625l2.890625 0l0 -8.125q0.3125 0.34375 0.671875 0.640625q0.359375 0.28125 0.765625 0.515625q0.671875 0.375 1.5 0.578125q0.84375 0.203125 1.8125 0.203125q1.59375 0 2.828125 -0.65625q1.25 -0.65625 2.09375 -1.8125q0.84375 -1.15625 1.28125 -2.71875q0.4375 -1.578125 0.4375 -3.390625l0 -0.328125q0 -1.890625 -0.4375 -3.46875q-0.4375 -1.59375 -1.28125 -2.734375q-0.84375 -1.140625 -2.09375 -1.78125q-1.25 -0.640625 -2.875 -0.640625q-0.921875 0 -1.734375 0.203125q-0.796875 0.1875 -1.453125 0.5625q-0.46875 0.25 -0.875 0.609375q-0.40625 0.34375 -0.75 0.78125l-0.140625 -1.84375l-2.640625 0l0 23.40625zm11.390625 -15.09375l0 0.328125q0 1.234375 -0.28125 2.359375q-0.265625 1.125 -0.828125 1.984375q-0.5625 0.859375 -1.4375 1.375q-0.875 0.5 -2.078125 0.5q-0.75 0 -1.375 -0.1875q-0.609375 -0.1875 -1.109375 -0.515625q-0.4375 -0.28125 -0.78125 -0.6875q-0.34375 -0.40625 -0.609375 -0.875l0 -8.140625q0.296875 -0.53125 0.6875 -0.96875q0.390625 -0.4375 0.890625 -0.734375q0.453125 -0.296875 1.015625 -0.453125q0.578125 -0.15625 1.25 -0.15625q1.21875 0 2.09375 0.5q0.875 0.5 1.453125 1.34375q0.5625 0.859375 0.828125 1.984375q0.28125 1.109375 0.28125 2.34375zm8.28125 -15.40625l0 2.515625l5.75 0l0 18.984375l-5.75 0l0 2.5l14.15625 0l0 -2.5l-5.515625 0l0 -21.5l-8.640625 0zm26.21875 24.3125q2.46875 0 4.140625 -0.984375q1.6875 -1.0 2.53125 -2.28125l-1.765625 -1.375q-0.796875 1.03125 -2.0 1.65625q-1.203125 0.625 -2.75 0.625q-1.171875 0 -2.140625 -0.4375q-0.96875 -0.4375 -1.65625 -1.203125q-0.671875 -0.71875 -1.0625 -1.65625q-0.375 -0.9375 -0.484375 -2.171875l0 -0.109375l12.078125 0l0 -1.296875q0 -1.765625 -0.453125 -3.28125q-0.4375 -1.515625 -1.34375 -2.640625q-0.90625 -1.109375 -2.28125 -1.734375q-1.359375 -0.640625 -3.1875 -0.640625q-1.453125 0 -2.84375 0.59375q-1.375 0.59375 -2.453125 1.703125q-1.09375 1.125 -1.75 2.75q-0.65625 1.609375 -0.65625 3.65625l0 0.65625q0 1.765625 0.59375 3.265625q0.59375 1.5 1.65625 2.59375q1.0625 1.09375 2.546875 1.703125q1.5 0.609375 3.28125 0.609375zm-0.375 -15.15625q1.109375 0 1.90625 0.40625q0.8125 0.40625 1.34375 1.0625q0.53125 0.65625 0.828125 1.5625q0.296875 0.890625 0.296875 1.671875l0 0.140625l-9.09375 0q0.171875 -1.171875 0.59375 -2.0625q0.4375 -0.90625 1.0625 -1.53125q0.625 -0.609375 1.40625 -0.921875q0.78125 -0.328125 1.65625 -0.328125zm17.140625 12.96875q0 0.90625 0.5625 1.546875q0.578125 0.625 1.703125 0.625q1.109375 0 1.703125 -0.625q0.59375 -0.625 0.59375 -1.546875q0 -0.9375 -0.59375 -1.578125q-0.578125 -0.65625 -1.703125 -0.65625q-1.140625 0 -1.703125 0.65625q-0.5625 0.65625 -0.5625 1.578125zm21.375 -0.15625q-1.359375 0 -2.28125 -0.53125q-0.90625 -0.546875 -1.453125 -1.421875q-0.5625 -0.859375 -0.8125 -1.9375q-0.234375 -1.09375 -0.234375 -2.203125l0 -0.65625q0 -1.09375 0.234375 -2.171875q0.25 -1.078125 0.8125 -1.953125q0.5625 -0.859375 1.46875 -1.390625q0.921875 -0.546875 2.265625 -0.546875q0.875 0 1.625 0.296875q0.765625 0.296875 1.3125 0.8125q0.546875 0.515625 0.859375 1.203125q0.328125 0.671875 0.34375 1.4375l2.734375 0q0 -1.28125 -0.515625 -2.40625q-0.515625 -1.125 -1.421875 -1.953125q-0.921875 -0.8125 -2.1875 -1.28125q-1.25 -0.484375 -2.75 -0.484375q-1.921875 0 -3.359375 0.6875q-1.4375 0.6875 -2.390625 1.84375q-0.96875 1.171875 -1.453125 2.703125q-0.484375 1.53125 -0.484375 3.203125l0 0.65625q0 1.6875 0.484375 3.21875q0.484375 1.515625 1.453125 2.671875q0.953125 1.171875 2.390625 1.859375q1.4375 0.6875 3.359375 0.6875q1.34375 0 2.578125 -0.453125q1.234375 -0.46875 2.1875 -1.25q0.953125 -0.765625 1.515625 -1.78125q0.578125 -1.03125 0.59375 -2.15625l-2.734375 0q-0.015625 0.703125 -0.375 1.3125q-0.34375 0.59375 -0.921875 1.03125q-0.578125 0.453125 -1.328125 0.703125q-0.734375 0.25 -1.515625 0.25zm11.1875 -6.578125l0 0.34375q0 1.828125 0.53125 3.390625q0.53125 1.5625 1.53125 2.71875q0.984375 1.15625 2.40625 1.8125q1.4375 0.65625 3.234375 0.65625q1.78125 0 3.203125 -0.65625q1.421875 -0.65625 2.421875 -1.8125q0.984375 -1.15625 1.515625 -2.71875q0.53125 -1.5625 0.53125 -3.390625l0 -0.34375q0 -1.828125 -0.53125 -3.390625q-0.53125 -1.578125 -1.515625 -2.734375q-1.0 -1.15625 -2.4375 -1.8125q-1.421875 -0.671875 -3.21875 -0.671875q-1.78125 0 -3.203125 0.671875q-1.421875 0.65625 -2.40625 1.8125q-1.0 1.15625 -1.53125 2.734375q-0.53125 1.5625 -0.53125 3.390625zm2.890625 0.34375l0 -0.34375q0 -1.234375 0.296875 -2.359375q0.296875 -1.140625 0.90625 -2.0q0.59375 -0.859375 1.484375 -1.359375q0.890625 -0.515625 2.09375 -0.515625q1.203125 0 2.09375 0.515625q0.90625 0.5 1.515625 1.359375q0.59375 0.859375 0.890625 2.0q0.3125 1.125 0.3125 2.359375l0 0.34375q0 1.25 -0.296875 2.390625q-0.296875 1.125 -0.890625 1.984375q-0.609375 0.859375 -1.515625 1.359375q-0.890625 0.5 -2.078125 0.5q-1.203125 0 -2.109375 -0.5q-0.90625 -0.5 -1.5 -1.359375q-0.609375 -0.859375 -0.90625 -1.984375q-0.296875 -1.140625 -0.296875 -2.390625zm18.453125 -8.640625l-2.59375 0l0 16.90625l2.75 0l0 -13.453125q0.09375 -0.25 0.234375 -0.46875q0.15625 -0.21875 0.359375 -0.390625q0.265625 -0.21875 0.640625 -0.328125q0.390625 -0.125 0.90625 -0.125q0.46875 0 0.8125 0.125q0.359375 0.109375 0.59375 0.359375q0.25 0.265625 0.359375 0.671875q0.125 0.40625 0.125 0.9375l0 12.671875l2.75 0l0 -12.65625q0 -0.09375 0 -0.15625q0 -0.078125 0 -0.15625q0.046875 -0.390625 0.1875 -0.703125q0.140625 -0.328125 0.390625 -0.578125q0.25 -0.234375 0.625 -0.375q0.375 -0.140625 0.890625 -0.140625q0.484375 0 0.84375 0.125q0.375 0.125 0.625 0.375q0.234375 0.265625 0.359375 0.671875q0.125 0.40625 0.125 0.9375l0 12.65625l2.75 0l0 -12.625q0 -1.21875 -0.28125 -2.109375q-0.28125 -0.90625 -0.8125 -1.46875q-0.484375 -0.5 -1.1875 -0.75q-0.703125 -0.265625 -1.578125 -0.265625q-0.640625 0.015625 -1.1875 0.171875q-0.53125 0.15625 -0.96875 0.421875q-0.34375 0.234375 -0.640625 0.546875q-0.296875 0.3125 -0.515625 0.671875q-0.171875 -0.390625 -0.421875 -0.703125q-0.234375 -0.3125 -0.53125 -0.53125q-0.40625 -0.28125 -0.953125 -0.421875q-0.53125 -0.15625 -1.203125 -0.15625q-1.1875 0.015625 -2.03125 0.515625q-0.828125 0.5 -1.34375 1.390625l-0.078125 -1.59375zm24.15625 -5.140625l0 -2.296875l-2.828125 0l0 2.34375q0 1.34375 -0.375 2.5q-0.359375 1.15625 -1.09375 2.265625l1.578125 1.125q0.65625 -0.5625 1.15625 -1.28125q0.5 -0.71875 0.859375 -1.515625q0.34375 -0.78125 0.515625 -1.59375q0.1875 -0.8125 0.1875 -1.546875zm5.1875 0l0 -2.296875l-2.828125 0l0 2.34375q0 1.34375 -0.375 2.5q-0.359375 1.15625 -1.09375 2.265625l1.578125 1.125q0.65625 -0.5625 1.15625 -1.28125q0.5 -0.71875 0.859375 -1.515625q0.34375 -0.78125 0.515625 -1.59375q0.1875 -0.8125 0.1875 -1.546875z" fill-rule="nonzero"/><path fill="#999999" d="m574.09296 222.78624l13.796875 -5.921875l0 -2.28125l-13.796875 -5.90625l0 2.984375l10.109375 3.75l0.9375 0.296875l-0.9375 0.265625l-10.109375 3.8125l0 3.0zm31.65625 -7.4375l0 -2.453125l-9.5 0l0 -7.3125l10.9375 0l0 -2.46875l-13.828125 0l0 22.75l13.96875 0l0 -2.453125l-11.078125 0l0 -8.0625l9.5 0zm6.6875 10.515625l2.890625 0l0 -12.125q0.296875 -0.546875 0.6875 -1.0q0.40625 -0.453125 0.875 -0.796875q0.578125 -0.390625 1.265625 -0.609375q0.6875 -0.234375 1.484375 -0.234375q0.921875 0 1.625 0.21875q0.71875 0.21875 1.21875 0.703125q0.484375 0.484375 0.734375 1.265625q0.25 0.78125 0.25 1.90625l0 10.671875l2.890625 0l0 -10.734375q0 -1.6875 -0.421875 -2.90625q-0.40625 -1.234375 -1.171875 -2.03125q-0.765625 -0.796875 -1.859375 -1.171875q-1.078125 -0.375 -2.40625 -0.375q-0.984375 0.015625 -1.875 0.296875q-0.875 0.265625 -1.625 0.765625q-0.5 0.328125 -0.953125 0.78125q-0.4375 0.4375 -0.8125 0.96875l-0.203125 -2.5l-2.59375 0l0 16.90625zm19.65625 -24.0l0 2.515625l5.75 0l0 18.984375l-5.75 0l0 2.5l14.15625 0l0 -2.5l-5.515625 0l0 -21.5l-8.640625 0zm19.203125 0l0 2.515625l5.75 0l0 18.984375l-5.75 0l0 2.5l14.15625 0l0 -2.5l-5.515625 0l0 -21.5l-8.640625 0zm29.859375 24.0l3.015625 0l0 -0.25q-0.28125 -0.703125 -0.4375 -1.640625q-0.15625 -0.953125 -0.15625 -1.796875l0 -7.859375q0 -1.421875 -0.515625 -2.484375q-0.515625 -1.0625 -1.40625 -1.78125q-0.90625 -0.703125 -2.140625 -1.046875q-1.234375 -0.359375 -2.671875 -0.359375q-1.578125 0 -2.828125 0.4375q-1.234375 0.4375 -2.09375 1.140625q-0.875 0.71875 -1.34375 1.609375q-0.453125 0.890625 -0.46875 1.8125l2.90625 0q0 -0.53125 0.25 -1.015625q0.265625 -0.5 0.734375 -0.859375q0.46875 -0.359375 1.140625 -0.578125q0.6875 -0.21875 1.546875 -0.21875q0.921875 0 1.65625 0.234375q0.75 0.234375 1.265625 0.65625q0.515625 0.4375 0.796875 1.046875q0.28125 0.609375 0.28125 1.375l0 1.328125l-3.15625 0q-1.765625 0 -3.203125 0.34375q-1.421875 0.34375 -2.4375 1.03125q-1.015625 0.703125 -1.578125 1.75q-0.546875 1.046875 -0.546875 2.4375q0 1.0625 0.40625 1.984375q0.421875 0.90625 1.1875 1.5625q0.75 0.671875 1.828125 1.0625q1.09375 0.390625 2.4375 0.390625q0.828125 0 1.5625 -0.171875q0.734375 -0.171875 1.390625 -0.46875q0.640625 -0.296875 1.171875 -0.6875q0.546875 -0.390625 0.984375 -0.828125q0.046875 0.53125 0.140625 1.03125q0.109375 0.484375 0.28125 0.8125zm-5.109375 -2.203125q-0.84375 0 -1.484375 -0.21875q-0.640625 -0.21875 -1.0625 -0.609375q-0.421875 -0.375 -0.640625 -0.90625q-0.203125 -0.53125 -0.203125 -1.15625q0 -0.65625 0.234375 -1.171875q0.25 -0.515625 0.71875 -0.890625q0.65625 -0.53125 1.765625 -0.78125q1.125 -0.265625 2.625 -0.265625l2.6875 0l0 3.421875q-0.25 0.5 -0.6875 0.96875q-0.4375 0.453125 -1.03125 0.8125q-0.609375 0.359375 -1.34375 0.578125q-0.734375 0.21875 -1.578125 0.21875zm20.40625 0.171875q-1.359375 0 -2.28125 -0.53125q-0.90625 -0.546875 -1.453125 -1.421875q-0.5625 -0.859375 -0.8125 -1.9375q-0.234375 -1.09375 -0.234375 -2.203125l0 -0.65625q0 -1.09375 0.234375 -2.171875q0.25 -1.078125 0.8125 -1.953125q0.5625 -0.859375 1.46875 -1.390625q0.921875 -0.546875 2.265625 -0.546875q0.875 0 1.625 0.296875q0.765625 0.296875 1.3125 0.8125q0.546875 0.515625 0.859375 1.203125q0.328125 0.671875 0.34375 1.4375l2.734375 0q0 -1.28125 -0.515625 -2.40625q-0.515625 -1.125 -1.421875 -1.953125q-0.921875 -0.8125 -2.1875 -1.28125q-1.25 -0.484375 -2.75 -0.484375q-1.921875 0 -3.359375 0.6875q-1.4375 0.6875 -2.390625 1.84375q-0.96875 1.171875 -1.453125 2.703125q-0.484375 1.53125 -0.484375 3.203125l0 0.65625q0 1.6875 0.484375 3.21875q0.484375 1.515625 1.453125 2.671875q0.953125 1.171875 2.390625 1.859375q1.4375 0.6875 3.359375 0.6875q1.34375 0 2.578125 -0.453125q1.234375 -0.46875 2.1875 -1.25q0.953125 -0.765625 1.515625 -1.78125q0.578125 -1.03125 0.59375 -2.15625l-2.734375 0q-0.015625 0.703125 -0.375 1.3125q-0.34375 0.59375 -0.921875 1.03125q-0.578125 0.453125 -1.328125 0.703125q-0.734375 0.25 -1.515625 0.25zm1.09375 2.03125l-2.078125 0l-0.484375 2.09375q0.625 0.046875 1.09375 0.140625q0.46875 0.09375 0.796875 0.25q0.3125 0.171875 0.46875 0.4375q0.15625 0.265625 0.15625 0.65625q0 0.421875 -0.21875 0.703125q-0.203125 0.296875 -0.546875 0.484375q-0.359375 0.1875 -0.828125 0.265625q-0.46875 0.09375 -1.0 0.09375l0.109375 1.671875q0.953125 0 1.734375 -0.171875q0.796875 -0.171875 1.375 -0.46875q0.78125 -0.421875 1.203125 -1.09375q0.421875 -0.671875 0.421875 -1.546875q0 -0.671875 -0.203125 -1.15625q-0.203125 -0.46875 -0.53125 -0.78125q-0.34375 -0.3125 -0.78125 -0.5q-0.421875 -0.1875 -0.875 -0.265625l0.1875 -0.8125zm24.09375 -3.0625l0 -3.0625l-9.5625 -3.6875l-0.828125 -0.28125l0.828125 -0.265625l9.5625 -3.75l0 -3.0625l-13.25 5.90625l0 2.28125l13.25 5.921875zm9.828125 5.015625l9.484375 -24.703125l-2.578125 0l-9.5 24.703125l2.59375 0z" fill-rule="nonzero"/><path fill="#990055" d="m757.96796 225.86436l3.015625 0l0 -0.25q-0.28125 -0.703125 -0.4375 -1.640625q-0.15625 -0.953125 -0.15625 -1.796875l0 -7.859375q0 -1.421875 -0.515625 -2.484375q-0.515625 -1.0625 -1.40625 -1.78125q-0.90625 -0.703125 -2.140625 -1.046875q-1.234375 -0.359375 -2.671875 -0.359375q-1.578125 0 -2.828125 0.4375q-1.234375 0.4375 -2.09375 1.140625q-0.875 0.71875 -1.34375 1.609375q-0.453125 0.890625 -0.46875 1.8125l2.90625 0q0 -0.53125 0.25 -1.015625q0.265625 -0.5 0.734375 -0.859375q0.46875 -0.359375 1.140625 -0.578125q0.6875 -0.21875 1.546875 -0.21875q0.921875 0 1.65625 0.234375q0.75 0.234375 1.265625 0.65625q0.515625 0.4375 0.796875 1.046875q0.28125 0.609375 0.28125 1.375l0 1.328125l-3.15625 0q-1.765625 0 -3.203125 0.34375q-1.421875 0.34375 -2.4375 1.03125q-1.015625 0.703125 -1.578125 1.75q-0.546875 1.046875 -0.546875 2.4375q0 1.0625 0.40625 1.984375q0.421875 0.90625 1.1875 1.5625q0.75 0.671875 1.828125 1.0625q1.09375 0.390625 2.4375 0.390625q0.828125 0 1.5625 -0.171875q0.734375 -0.171875 1.390625 -0.46875q0.640625 -0.296875 1.171875 -0.6875q0.546875 -0.390625 0.984375 -0.828125q0.046875 0.53125 0.140625 1.03125q0.109375 0.484375 0.28125 0.8125zm-5.109375 -2.203125q-0.84375 0 -1.484375 -0.21875q-0.640625 -0.21875 -1.0625 -0.609375q-0.421875 -0.375 -0.640625 -0.90625q-0.203125 -0.53125 -0.203125 -1.15625q0 -0.65625 0.234375 -1.171875q0.25 -0.515625 0.71875 -0.890625q0.65625 -0.53125 1.765625 -0.78125q1.125 -0.265625 2.625 -0.265625l2.6875 0l0 3.421875q-0.25 0.5 -0.6875 0.96875q-0.4375 0.453125 -1.03125 0.8125q-0.609375 0.359375 -1.34375 0.578125q-0.734375 0.21875 -1.578125 0.21875z" fill-rule="nonzero"/><path fill="#999999" d="m766.1242 222.78624l13.796875 -5.921875l0 -2.28125l-13.796875 -5.90625l0 2.984375l10.109375 3.75l0.9375 0.296875l-0.9375 0.265625l-10.109375 3.8125l0 3.0z" fill-rule="nonzero"/><path fill="#000000" fill-opacity="0.0" d="m98.614174 186.14436c0 -14.950836 12.120041 -27.070877 27.070862 -27.070877l186.89764 0c14.950836 0 27.070862 -12.120041 27.070862 -27.070862l0 0c0 14.950821 12.120056 27.070862 27.070862 27.070862l186.89767 0l0 0c14.950806 0 27.070862 12.120041 27.070862 27.070877z" fill-rule="evenodd"/><path fill="#000000" fill-opacity="0.0" d="m98.614174 186.14436c0 -14.950836 12.120041 -27.070877 27.070862 -27.070877l186.89764 0c14.950836 0 27.070862 -12.120041 27.070862 -27.070862l0 0c0 14.950821 12.120056 27.070862 27.070862 27.070862l186.89767 0l0 0c14.950806 0 27.070862 12.120041 27.070862 27.070877" fill-rule="evenodd"/><path stroke="#999999" stroke-width="3.0" stroke-linejoin="round" stroke-linecap="butt" d="m98.614174 186.14436c0 -14.950836 12.120041 -27.070877 27.070862 -27.070877l186.89764 0c14.950836 0 27.070862 -12.120041 27.070862 -27.070862l0 0c0 14.950821 12.120056 27.070862 27.070862 27.070862l186.89767 0l0 0c14.950806 0 27.070862 12.120041 27.070862 27.070877" fill-rule="evenodd"/><path fill="#000000" fill-opacity="0.0" d="m702.79266 186.14436c0 -14.950836 5.635803 -27.070877 12.587952 -27.070877l15.721741 0c6.9520874 0 12.587952 -12.120041 12.587952 -27.070862l0 0c0 14.950821 5.635803 27.070862 12.587952 27.070862l15.721741 0l0 0c6.9520874 0 12.587952 12.120041 12.587952 27.070877z" fill-rule="evenodd"/><path fill="#000000" fill-opacity="0.0" d="m702.79266 186.14436c0 -14.950836 5.635803 -27.070877 12.587952 -27.070877l15.721741 0c6.9520874 0 12.587952 -12.120041 12.587952 -27.070862l0 0c0 14.950821 5.635803 27.070862 12.587952 27.070862l15.721741 0l0 0c6.9520874 0 12.587952 12.120041 12.587952 27.070877" fill-rule="evenodd"/><path stroke="#999999" stroke-width="3.0" stroke-linejoin="round" stroke-linecap="butt" d="m702.79266 186.14436c0 -14.950836 5.635803 -27.070877 12.587952 -27.070877l15.721741 0c6.9520874 0 12.587952 -12.120041 12.587952 -27.070862l0 0c0 14.950821 5.635803 27.070862 12.587952 27.070862l15.721741 0l0 0c6.9520874 0 12.587952 12.120041 12.587952 27.070877" fill-rule="evenodd"/><path fill="#000000" fill-opacity="0.0" d="m699.0131 244.31758c0 14.950821 -5.635803 27.070877 -12.587952 27.070877l-27.690247 0c-6.9521484 0 -12.587952 12.120026 -12.587952 27.070862l0 0c0 -14.950836 -5.635803 -27.070862 -12.587952 -27.070862l-27.690247 0l0 0c-6.9520874 0 -12.587952 -12.120056 -12.587952 -27.070877z" fill-rule="evenodd"/><path fill="#000000" fill-opacity="0.0" d="m699.0131 244.31758c0 14.950821 -5.635803 27.070877 -12.587952 27.070877l-27.690247 0c-6.9521484 0 -12.587952 12.120026 -12.587952 27.070862l0 0c0 -14.950836 -5.635803 -27.070862 -12.587952 -27.070862l-27.690247 0l0 0c-6.9520874 0 -12.587952 -12.120056 -12.587952 -27.070877" fill-rule="evenodd"/><path stroke="#999999" stroke-width="3.0" stroke-linejoin="round" stroke-linecap="butt" d="m699.0131 244.31758c0 14.950821 -5.635803 27.070877 -12.587952 27.070877l-27.690247 0c-6.9521484 0 -12.587952 12.120026 -12.587952 27.070862l0 0c0 -14.950836 -5.635803 -27.070862 -12.587952 -27.070862l-27.690247 0l0 0c-6.9520874 0 -12.587952 -12.120056 -12.587952 -27.070877" fill-rule="evenodd"/><path fill="#000000" fill-opacity="0.0" d="m561.8294 244.31758c0 14.950821 -12.120056 27.070877 -27.070862 27.070877l-100.06302 0c-14.950806 0 -27.070862 12.120026 -27.070862 27.070862l0 0c0 -14.950836 -12.120026 -27.070862 -27.070862 -27.070862l-100.06299 0l0 0c-14.950836 0 -27.070862 -12.120056 -27.070862 -27.070877z" fill-rule="evenodd"/><path fill="#000000" fill-opacity="0.0" d="m561.8294 244.31758c0 14.950821 -12.120056 27.070877 -27.070862 27.070877l-100.06302 0c-14.950806 0 -27.070862 12.120026 -27.070862 27.070862l0 0c0 -14.950836 -12.120026 -27.070862 -27.070862 -27.070862l-100.06299 0l0 0c-14.950836 0 -27.070862 -12.120056 -27.070862 -27.070877" fill-rule="evenodd"/><path stroke="#0077aa" stroke-width="3.0" stroke-linejoin="round" stroke-linecap="butt" d="m561.8294 244.31758c0 14.950821 -12.120056 27.070877 -27.070862 27.070877l-100.06302 0c-14.950806 0 -27.070862 12.120026 -27.070862 27.070862l0 0c0 -14.950836 -12.120026 -27.070862 -27.070862 -27.070862l-100.06299 0l0 0c-14.950836 0 -27.070862 -12.120056 -27.070862 -27.070877" fill-rule="evenodd"/><path fill="#000000" fill-opacity="0.0" d="m234.5538 244.31758c0 14.950821 -5.6358185 27.070877 -12.587952 27.070877l-18.257156 0c-6.9521484 0 -12.587967 12.120026 -12.587967 27.070862l0 0c0 -14.950836 -5.6358185 -27.070862 -12.587952 -27.070862l-18.257156 0l0 0c-6.952133 0 -12.587952 -12.120056 -12.587952 -27.070877z" fill-rule="evenodd"/><path fill="#000000" fill-opacity="0.0" d="m234.5538 244.31758c0 14.950821 -5.6358185 27.070877 -12.587952 27.070877l-18.257156 0c-6.9521484 0 -12.587967 12.120026 -12.587967 27.070862l0 0c0 -14.950836 -5.6358185 -27.070862 -12.587952 -27.070862l-18.257156 0l0 0c-6.952133 0 -12.587952 -12.120056 -12.587952 -27.070877" fill-rule="evenodd"/><path stroke="#669900" stroke-width="3.0" stroke-linejoin="round" stroke-linecap="butt" d="m234.5538 244.31758c0 14.950821 -5.6358185 27.070877 -12.587952 27.070877l-18.257156 0c-6.9521484 0 -12.587967 12.120026 -12.587967 27.070862l0 0c0 -14.950836 -5.6358185 -27.070862 -12.587952 -27.070862l-18.257156 0l0 0c-6.952133 0 -12.587952 -12.120056 -12.587952 -27.070877" fill-rule="evenodd"/><path fill="#000000" fill-opacity="0.0" d="m273.98587 38.38845l131.3386 0l0 64.62992l-131.3386 0z" fill-rule="evenodd"/><path fill="#999999" d="m304.21674 65.30845l0 -13.359375l9.90625 0l0 2.265625l-7.21875 0l0 2.953125l6.71875 0l0 2.25l-6.71875 0l0 3.640625l7.46875 0l0 2.25l-10.15625 0zm16.865448 -9.671875l0 2.03125l-1.75 0l0 3.90625q0 1.1875 0.046875 1.390625q0.046875 0.1875 0.21875 0.3125q0.1875 0.125 0.4375 0.125q0.359375 0 1.03125 -0.25l0.21875 2.0q-0.890625 0.375 -2.015625 0.375q-0.703125 0 -1.265625 -0.234375q-0.546875 -0.234375 -0.8125 -0.59375q-0.25 -0.375 -0.34375 -1.0q-0.09375 -0.453125 -0.09375 -1.8125l0 -4.21875l-1.171875 0l0 -2.03125l1.171875 0l0 -1.921875l2.578125 -1.5l0 3.421875l1.75 0zm1.775177 -1.3125l0 -2.375l2.5625 0l0 2.375l-2.5625 0zm0 10.984375l0 -9.671875l2.5625 0l0 9.671875l-2.5625 0zm11.495819 3.6875l0 -4.875q-0.5 0.65625 -1.25 1.03125q-0.734375 0.375 -1.609375 0.375q-1.640625 0 -2.703125 -1.234375q-1.265625 -1.453125 -1.265625 -3.9375q0 -2.328125 1.171875 -3.625q1.1875 -1.3125 2.9375 -1.3125q0.96875 0 1.671875 0.40625q0.703125 0.40625 1.25 1.234375l0 -1.421875l2.359375 0l0 13.359375l-2.5625 0zm0.09375 -8.640625q0 -1.484375 -0.609375 -2.203125q-0.609375 -0.734375 -1.515625 -0.734375q-0.9375 0 -1.5625 0.75q-0.625 0.734375 -0.625 2.328125q0 1.59375 0.59375 2.3125q0.609375 0.703125 1.5 0.703125q0.875 0 1.546875 -0.796875q0.671875 -0.796875 0.671875 -2.359375zm11.349091 4.953125l0 -1.453125q-0.53125 0.78125 -1.390625 1.234375q-0.859375 0.4375 -1.8125 0.4375q-0.96875 0 -1.75 -0.421875q-0.765625 -0.4375 -1.125 -1.203125q-0.34375 -0.78125 -0.34375 -2.140625l0 -6.125l2.5625 0l0 4.4375q0 2.046875 0.140625 2.515625q0.140625 0.453125 0.515625 0.71875q0.375 0.265625 0.953125 0.265625q0.65625 0 1.171875 -0.359375q0.515625 -0.359375 0.703125 -0.890625q0.203125 -0.53125 0.203125 -2.609375l0 -4.078125l2.546875 0l0 9.671875l-2.375 0zm10.630341 -3.078125l2.546875 0.421875q-0.484375 1.40625 -1.546875 2.140625q-1.0625 0.734375 -2.65625 0.734375q-2.515625 0 -3.734375 -1.65625q-0.953125 -1.3125 -0.953125 -3.328125q0 -2.40625 1.25 -3.765625q1.265625 -1.359375 3.1875 -1.359375q2.15625 0 3.40625 1.421875q1.25 1.421875 1.1875 4.375l-6.40625 0q0.03125 1.140625 0.609375 1.78125q0.59375 0.625 1.484375 0.625q0.59375 0 1.0 -0.328125q0.421875 -0.328125 0.625 -1.0625zm0.15625 -2.59375q-0.03125 -1.109375 -0.578125 -1.6875q-0.546875 -0.578125 -1.328125 -0.578125q-0.84375 0 -1.390625 0.609375q-0.546875 0.609375 -0.53125 1.65625l3.828125 0zm9.063232 -4.0l0 2.03125l-1.75 0l0 3.90625q0 1.1875 0.046875 1.390625q0.046875 0.1875 0.21875 0.3125q0.1875 0.125 0.4375 0.125q0.359375 0 1.03125 -0.25l0.21875 2.0q-0.890625 0.375 -2.015625 0.375q-0.703125 0 -1.265625 -0.234375q-0.546875 -0.234375 -0.8125 -0.59375q-0.25 -0.375 -0.34375 -1.0q-0.09375 -0.453125 -0.09375 -1.8125l0 -4.21875l-1.171875 0l0 -2.03125l1.171875 0l0 -1.921875l2.578125 -1.5l0 3.421875l1.75 0zm3.681427 2.953125l-2.328125 -0.421875q0.40625 -1.40625 1.359375 -2.078125q0.953125 -0.671875 2.84375 -0.671875q1.703125 0 2.546875 0.40625q0.84375 0.40625 1.171875 1.03125q0.34375 0.625 0.34375 2.28125l-0.015625 3.0q0 1.265625 0.109375 1.875q0.125 0.609375 0.46875 1.296875l-2.53125 0q-0.109375 -0.25 -0.25 -0.75q-0.0625 -0.234375 -0.09375 -0.3125q-0.65625 0.640625 -1.40625 0.96875q-0.734375 0.3125 -1.59375 0.3125q-1.484375 0 -2.34375 -0.8125q-0.859375 -0.8125 -0.859375 -2.046875q0 -0.828125 0.390625 -1.46875q0.390625 -0.640625 1.09375 -0.96875q0.703125 -0.34375 2.03125 -0.609375q1.796875 -0.328125 2.484375 -0.625l0 -0.25q0 -0.75 -0.359375 -1.0625q-0.359375 -0.3125 -1.375 -0.3125q-0.6875 0 -1.078125 0.28125q-0.375 0.265625 -0.609375 0.9375zm3.421875 2.078125q-0.484375 0.15625 -1.5625 0.390625q-1.0625 0.21875 -1.390625 0.4375q-0.5 0.359375 -0.5 0.90625q0 0.53125 0.40625 0.9375q0.40625 0.390625 1.015625 0.390625q0.703125 0 1.328125 -0.46875q0.46875 -0.34375 0.609375 -0.84375q0.09375 -0.328125 0.09375 -1.25l0 -0.5z" fill-rule="nonzero"/><path fill="#999999" d="m304.25812 87.70845l-2.390625 0l0 -1.421875q-0.59375 0.828125 -1.40625 1.234375q-0.796875 0.40625 -1.609375 0.40625q-1.671875 0 -2.859375 -1.34375q-1.1875 -1.34375 -1.1875 -3.75q0 -2.453125 1.15625 -3.734375q1.15625 -1.28125 2.921875 -1.28125q1.625 0 2.8125 1.34375l0 -4.8125l2.5625 0l0 13.359375zm-6.84375 -5.046875q0 1.546875 0.4375 2.234375q0.609375 1.015625 1.71875 1.015625q0.890625 0 1.5 -0.75q0.625 -0.765625 0.625 -2.25q0 -1.671875 -0.609375 -2.40625q-0.59375 -0.734375 -1.53125 -0.734375q-0.90625 0 -1.53125 0.734375q-0.609375 0.71875 -0.609375 2.15625zm9.302246 -8.28125l2.546875 0l0 1.828125q0 1.109375 -0.1875 1.765625q-0.1875 0.640625 -0.71875 1.15625q-0.53125 0.5 -1.359375 0.796875l-0.5 -1.0625q0.78125 -0.25 1.109375 -0.6875q0.328125 -0.453125 0.34375 -1.234375l-1.234375 0l0 -2.5625zm7.1520386 6.609375l-2.328125 -0.421875q0.40625 -1.40625 1.359375 -2.078125q0.953125 -0.671875 2.84375 -0.671875q1.703125 0 2.546875 0.40625q0.84375 0.40625 1.171875 1.03125q0.34375 0.625 0.34375 2.28125l-0.015625 3.0q0 1.265625 0.109375 1.875q0.125 0.609375 0.46875 1.296875l-2.53125 0q-0.109375 -0.25 -0.25 -0.75q-0.0625 -0.234375 -0.09375 -0.3125q-0.65625 0.640625 -1.40625 0.96875q-0.734375 0.3125 -1.59375 0.3125q-1.484375 0 -2.34375 -0.8125q-0.859375 -0.8125 -0.859375 -2.046875q0 -0.828125 0.390625 -1.46875q0.390625 -0.640625 1.09375 -0.96875q0.703125 -0.34375 2.03125 -0.609375q1.796875 -0.328125 2.484375 -0.625l0 -0.25q0 -0.75 -0.359375 -1.0625q-0.359375 -0.3125 -1.375 -0.3125q-0.6875 0 -1.078125 0.28125q-0.375 0.265625 -0.609375 0.9375zm3.421875 2.078125q-0.484375 0.15625 -1.5625 0.390625q-1.0625 0.21875 -1.390625 0.4375q-0.5 0.359375 -0.5 0.90625q0 0.53125 0.40625 0.9375q0.40625 0.390625 1.015625 0.390625q0.703125 0 1.328125 -0.46875q0.46875 -0.34375 0.609375 -0.84375q0.09375 -0.328125 0.09375 -1.25l0 -0.5zm4.9694824 -5.03125l2.390625 0l0 1.421875q0.46875 -0.734375 1.25 -1.1875q0.796875 -0.453125 1.765625 -0.453125q1.6875 0 2.859375 1.328125q1.171875 1.3125 1.171875 3.671875q0 2.421875 -1.1875 3.765625q-1.1875 1.34375 -2.859375 1.34375q-0.8125 0 -1.46875 -0.3125q-0.640625 -0.328125 -1.359375 -1.09375l0 4.875l-2.5625 0l0 -13.359375zm2.53125 4.671875q0 1.625 0.640625 2.40625q0.65625 0.78125 1.578125 0.78125q0.90625 0 1.484375 -0.71875q0.59375 -0.71875 0.59375 -2.34375q0 -1.515625 -0.609375 -2.25q-0.609375 -0.75 -1.515625 -0.75q-0.9375 0 -1.5625 0.734375q-0.609375 0.71875 -0.609375 2.140625zm14.536591 1.921875l2.546875 0.421875q-0.484375 1.40625 -1.546875 2.140625q-1.0625 0.734375 -2.65625 0.734375q-2.515625 0 -3.734375 -1.65625q-0.953125 -1.3125 -0.953125 -3.328125q0 -2.40625 1.25 -3.765625q1.265625 -1.359375 3.1875 -1.359375q2.15625 0 3.40625 1.421875q1.25 1.421875 1.1875 4.375l-6.40625 0q0.03125 1.140625 0.609375 1.78125q0.59375 0.625 1.484375 0.625q0.59375 0 1.0 -0.328125q0.421875 -0.328125 0.625 -1.0625zm0.15625 -2.59375q-0.03125 -1.109375 -0.578125 -1.6875q-0.546875 -0.578125 -1.328125 -0.578125q-0.84375 0 -1.390625 0.609375q-0.546875 0.609375 -0.53125 1.65625l3.828125 0zm7.078827 5.671875l-2.5625 0l0 -9.671875l2.375 0l0 1.375q0.609375 -0.984375 1.09375 -1.28125q0.484375 -0.3125 1.109375 -0.3125q0.875 0 1.6875 0.484375l-0.796875 2.234375q-0.640625 -0.421875 -1.203125 -0.421875q-0.53125 0 -0.90625 0.296875q-0.375 0.296875 -0.59375 1.078125q-0.203125 0.765625 -0.203125 3.234375l0 2.984375zm9.244659 -9.671875l0 2.03125l-1.75 0l0 3.90625q0 1.1875 0.046875 1.390625q0.046875 0.1875 0.21875 0.3125q0.1875 0.125 0.4375 0.125q0.359375 0 1.03125 -0.25l0.21875 2.0q-0.890625 0.375 -2.015625 0.375q-0.703125 0 -1.265625 -0.234375q-0.546875 -0.234375 -0.8125 -0.59375q-0.25 -0.375 -0.34375 -1.0q-0.09375 -0.453125 -0.09375 -1.8125l0 -4.21875l-1.171875 0l0 -2.03125l1.171875 0l0 -1.921875l2.578125 -1.5l0 3.421875l1.75 0zm8.134552 9.671875l0 -1.453125q-0.53125 0.78125 -1.390625 1.234375q-0.859375 0.4375 -1.8125 0.4375q-0.96875 0 -1.75 -0.421875q-0.765625 -0.4375 -1.125 -1.203125q-0.34375 -0.78125 -0.34375 -2.140625l0 -6.125l2.5625 0l0 4.4375q0 2.046875 0.140625 2.515625q0.140625 0.453125 0.515625 0.71875q0.375 0.265625 0.953125 0.265625q0.65625 0 1.171875 -0.359375q0.515625 -0.359375 0.703125 -0.890625q0.203125 -0.53125 0.203125 -2.609375l0 -4.078125l2.546875 0l0 9.671875l-2.375 0zm7.4897156 0l-2.5625 0l0 -9.671875l2.375 0l0 1.375q0.609375 -0.984375 1.09375 -1.28125q0.484375 -0.3125 1.109375 -0.3125q0.875 0 1.6875 0.484375l-0.796875 2.234375q-0.640625 -0.421875 -1.203125 -0.421875q-0.53125 0 -0.90625 0.296875q-0.375 0.296875 -0.59375 1.078125q-0.203125 0.765625 -0.203125 3.234375l0 2.984375zm6.7134094 -6.71875l-2.328125 -0.421875q0.40625 -1.40625 1.359375 -2.078125q0.953125 -0.671875 2.84375 -0.671875q1.703125 0 2.546875 0.40625q0.84375 0.40625 1.171875 1.03125q0.34375 0.625 0.34375 2.28125l-0.015625 3.0q0 1.265625 0.109375 1.875q0.125 0.609375 0.46875 1.296875l-2.53125 0q-0.109375 -0.25 -0.25 -0.75q-0.0625 -0.234375 -0.09375 -0.3125q-0.65625 0.640625 -1.40625 0.96875q-0.734375 0.3125 -1.59375 0.3125q-1.484375 0 -2.34375 -0.8125q-0.859375 -0.8125 -0.859375 -2.046875q0 -0.828125 0.390625 -1.46875q0.390625 -0.640625 1.09375 -0.96875q0.703125 -0.34375 2.03125 -0.609375q1.796875 -0.328125 2.484375 -0.625l0 -0.25q0 -0.75 -0.359375 -1.0625q-0.359375 -0.3125 -1.375 -0.3125q-0.6875 0 -1.078125 0.28125q-0.375 0.265625 -0.609375 0.9375zm3.421875 2.078125q-0.484375 0.15625 -1.5625 0.390625q-1.0625 0.21875 -1.390625 0.4375q-0.5 0.359375 -0.5 0.90625q0 0.53125 0.40625 0.9375q0.40625 0.390625 1.015625 0.390625q0.703125 0 1.328125 -0.46875q0.46875 -0.34375 0.609375 -0.84375q0.09375 -0.328125 0.09375 -1.25l0 -0.5z" fill-rule="nonzero"/><path fill="#000000" fill-opacity="0.0" d="m676.021 38.38845l135.33856 0l0 87.27559l-135.33856 0z" fill-rule="evenodd"/><path fill="#999999" d="m708.25183 65.30845l0 -13.359375l9.90625 0l0 2.265625l-7.21875 0l0 2.953125l6.71875 0l0 2.25l-6.71875 0l0 3.640625l7.46875 0l0 2.25l-10.15625 0zm16.865479 -9.671875l0 2.03125l-1.75 0l0 3.90625q0 1.1875 0.046875 1.390625q0.046875 0.1875 0.21875 0.3125q0.1875 0.125 0.4375 0.125q0.359375 0 1.03125 -0.25l0.21875 2.0q-0.890625 0.375 -2.015625 0.375q-0.703125 0 -1.265625 -0.234375q-0.546875 -0.234375 -0.8125 -0.59375q-0.25 -0.375 -0.34375 -1.0q-0.09375 -0.453125 -0.09375 -1.8125l0 -4.21875l-1.171875 0l0 -2.03125l1.171875 0l0 -1.921875l2.578125 -1.5l0 3.421875l1.75 0zm1.7751465 -1.3125l0 -2.375l2.5625 0l0 2.375l-2.5625 0zm0 10.984375l0 -9.671875l2.5625 0l0 9.671875l-2.5625 0zm11.49585 3.6875l0 -4.875q-0.5 0.65625 -1.25 1.03125q-0.734375 0.375 -1.609375 0.375q-1.640625 0 -2.703125 -1.234375q-1.265625 -1.453125 -1.265625 -3.9375q0 -2.328125 1.171875 -3.625q1.1875 -1.3125 2.9375 -1.3125q0.96875 0 1.671875 0.40625q0.703125 0.40625 1.25 1.234375l0 -1.421875l2.359375 0l0 13.359375l-2.5625 0zm0.09375 -8.640625q0 -1.484375 -0.609375 -2.203125q-0.609375 -0.734375 -1.515625 -0.734375q-0.9375 0 -1.5625 0.75q-0.625 0.734375 -0.625 2.328125q0 1.59375 0.59375 2.3125q0.609375 0.703125 1.5 0.703125q0.875 0 1.546875 -0.796875q0.671875 -0.796875 0.671875 -2.359375zm11.34906 4.953125l0 -1.453125q-0.53125 0.78125 -1.390625 1.234375q-0.859375 0.4375 -1.8125 0.4375q-0.96875 0 -1.75 -0.421875q-0.765625 -0.4375 -1.125 -1.203125q-0.34375 -0.78125 -0.34375 -2.140625l0 -6.125l2.5625 0l0 4.4375q0 2.046875 0.140625 2.515625q0.140625 0.453125 0.515625 0.71875q0.375 0.265625 0.953125 0.265625q0.65625 0 1.171875 -0.359375q0.515625 -0.359375 0.703125 -0.890625q0.203125 -0.53125 0.203125 -2.609375l0 -4.078125l2.546875 0l0 9.671875l-2.375 0zm10.630371 -3.078125l2.546875 0.421875q-0.484375 1.40625 -1.546875 2.140625q-1.0625 0.734375 -2.65625 0.734375q-2.515625 0 -3.734375 -1.65625q-0.953125 -1.3125 -0.953125 -3.328125q0 -2.40625 1.25 -3.765625q1.265625 -1.359375 3.1875 -1.359375q2.15625 0 3.40625 1.421875q1.25 1.421875 1.1875 4.375l-6.40625 0q0.03125 1.140625 0.609375 1.78125q0.59375 0.625 1.484375 0.625q0.59375 0 1.0 -0.328125q0.421875 -0.328125 0.625 -1.0625zm0.15625 -2.59375q-0.03125 -1.109375 -0.578125 -1.6875q-0.546875 -0.578125 -1.328125 -0.578125q-0.84375 0 -1.390625 0.609375q-0.546875 0.609375 -0.53125 1.65625l3.828125 0zm9.063232 -4.0l0 2.03125l-1.75 0l0 3.90625q0 1.1875 0.046875 1.390625q0.046875 0.1875 0.21875 0.3125q0.1875 0.125 0.4375 0.125q0.359375 0 1.03125 -0.25l0.21875 2.0q-0.890625 0.375 -2.015625 0.375q-0.703125 0 -1.265625 -0.234375q-0.546875 -0.234375 -0.8125 -0.59375q-0.25 -0.375 -0.34375 -1.0q-0.09375 -0.453125 -0.09375 -1.8125l0 -4.21875l-1.171875 0l0 -2.03125l1.171875 0l0 -1.921875l2.578125 -1.5l0 3.421875l1.75 0zm3.6813965 2.953125l-2.328125 -0.421875q0.40625 -1.40625 1.359375 -2.078125q0.953125 -0.671875 2.84375 -0.671875q1.703125 0 2.546875 0.40625q0.84375 0.40625 1.171875 1.03125q0.34375 0.625 0.34375 2.28125l-0.015625 3.0q0 1.265625 0.109375 1.875q0.125 0.609375 0.46875 1.296875l-2.53125 0q-0.109375 -0.25 -0.25 -0.75q-0.0625 -0.234375 -0.09375 -0.3125q-0.65625 0.640625 -1.40625 0.96875q-0.734375 0.3125 -1.59375 0.3125q-1.484375 0 -2.34375 -0.8125q-0.859375 -0.8125 -0.859375 -2.046875q0 -0.828125 0.390625 -1.46875q0.390625 -0.640625 1.09375 -0.96875q0.703125 -0.34375 2.03125 -0.609375q1.796875 -0.328125 2.484375 -0.625l0 -0.25q0 -0.75 -0.359375 -1.0625q-0.359375 -0.3125 -1.375 -0.3125q-0.6875 0 -1.078125 0.28125q-0.375 0.265625 -0.609375 0.9375zm3.421875 2.078125q-0.484375 0.15625 -1.5625 0.390625q-1.0625 0.21875 -1.390625 0.4375q-0.5 0.359375 -0.5 0.90625q0 0.53125 0.40625 0.9375q0.40625 0.390625 1.015625 0.390625q0.703125 0 1.328125 -0.46875q0.46875 -0.34375 0.609375 -0.84375q0.09375 -0.328125 0.09375 -1.25l0 -0.5z" fill-rule="nonzero"/><path fill="#999999" d="m743.0232 87.70845l-2.390625 0l0 -1.421875q-0.59375 0.828125 -1.40625 1.234375q-0.796875 0.40625 -1.609375 0.40625q-1.671875 0 -2.859375 -1.34375q-1.1875 -1.34375 -1.1875 -3.75q0 -2.453125 1.15625 -3.734375q1.15625 -1.28125 2.921875 -1.28125q1.625 0 2.8125 1.34375l0 -4.8125l2.5625 0l0 13.359375zm-6.84375 -5.046875q0 1.546875 0.4375 2.234375q0.609375 1.015625 1.71875 1.015625q0.890625 0 1.5 -0.75q0.625 -0.765625 0.625 -2.25q0 -1.671875 -0.609375 -2.40625q-0.59375 -0.734375 -1.53125 -0.734375q-0.90625 0 -1.53125 0.734375q-0.609375 0.71875 -0.609375 2.15625zm14.958496 1.96875l2.546875 0.421875q-0.484375 1.40625 -1.546875 2.140625q-1.0625 0.734375 -2.65625 0.734375q-2.515625 0 -3.734375 -1.65625q-0.953125 -1.3125 -0.953125 -3.328125q0 -2.40625 1.25 -3.765625q1.265625 -1.359375 3.1875 -1.359375q2.15625 0 3.40625 1.421875q1.25 1.421875 1.1875 4.375l-6.40625 0q0.03125 1.140625 0.609375 1.78125q0.59375 0.625 1.484375 0.625q0.59375 0 1.0 -0.328125q0.421875 -0.328125 0.625 -1.0625zm0.15625 -2.59375q-0.03125 -1.109375 -0.578125 -1.6875q-0.546875 -0.578125 -1.328125 -0.578125q-0.84375 0 -1.390625 0.609375q-0.546875 0.609375 -0.53125 1.65625l3.828125 0z" fill-rule="nonzero"/><path fill="#999999" d="m702.81726 100.43657l0 2.03125l-1.75 0l0 3.90625q0 1.1875 0.046875 1.390625q0.046875 0.1875 0.21875 0.3125q0.1875 0.125 0.4375 0.125q0.359375 0 1.03125 -0.25l0.21875 2.0q-0.890625 0.375 -2.015625 0.375q-0.703125 0 -1.265625 -0.234375q-0.546875 -0.234375 -0.8125 -0.59375q-0.25 -0.375 -0.34375 -1.0q-0.09375 -0.453125 -0.09375 -1.8125l0 -4.21875l-1.171875 0l0 -2.03125l1.171875 0l0 -1.921875l2.578125 -1.5l0 3.421875l1.75 0zm3.6813965 2.953125l-2.328125 -0.421875q0.40625 -1.40625 1.359375 -2.078125q0.953125 -0.671875 2.84375 -0.671875q1.703125 0 2.546875 0.40625q0.84375 0.40625 1.171875 1.03125q0.34375 0.625 0.34375 2.28125l-0.015625 3.0q0 1.265625 0.109375 1.875q0.125 0.609375 0.46875 1.296875l-2.53125 0q-0.109375 -0.25 -0.25 -0.75q-0.0625 -0.234375 -0.09375 -0.3125q-0.65625 0.640625 -1.40625 0.96875q-0.734375 0.3125 -1.59375 0.3125q-1.484375 0 -2.34375 -0.8125q-0.859375 -0.8125 -0.859375 -2.046875q0 -0.828125 0.390625 -1.46875q0.390625 -0.640625 1.09375 -0.96875q0.703125 -0.34375 2.03125 -0.609375q1.796875 -0.328125 2.484375 -0.625l0 -0.25q0 -0.75 -0.359375 -1.0625q-0.359375 -0.3125 -1.375 -0.3125q-0.6875 0 -1.078125 0.28125q-0.375 0.265625 -0.609375 0.9375zm3.421875 2.078125q-0.484375 0.15625 -1.5625 0.390625q-1.0625 0.21875 -1.390625 0.4375q-0.5 0.359375 -0.5 0.90625q0 0.53125 0.40625 0.9375q0.40625 0.390625 1.015625 0.390625q0.703125 0 1.328125 -0.46875q0.46875 -0.34375 0.609375 -0.84375q0.09375 -0.328125 0.09375 -1.25l0 -0.5zm13.844482 4.640625l-2.5625 0l0 -4.9375q0 -1.5625 -0.171875 -2.015625q-0.15625 -0.46875 -0.53125 -0.71875q-0.359375 -0.265625 -0.875 -0.265625q-0.671875 0 -1.203125 0.375q-0.53125 0.359375 -0.734375 0.96875q-0.1875 0.59375 -0.1875 2.21875l0 4.375l-2.546875 0l0 -9.671875l2.375 0l0 1.421875q1.265625 -1.640625 3.1875 -1.640625q0.84375 0 1.546875 0.3125q0.703125 0.296875 1.0625 0.78125q0.359375 0.46875 0.5 1.078125q0.140625 0.59375 0.140625 1.703125l0 6.015625zm11.036621 -6.8125l-2.53125 0.453125q-0.125 -0.75 -0.578125 -1.125q-0.453125 -0.390625 -1.171875 -0.390625q-0.953125 0 -1.53125 0.65625q-0.5625 0.65625 -0.5625 2.203125q0 1.734375 0.578125 2.4375q0.578125 0.703125 1.546875 0.703125q0.734375 0 1.203125 -0.40625q0.46875 -0.421875 0.65625 -1.421875l2.515625 0.421875q-0.390625 1.734375 -1.515625 2.625q-1.109375 0.875 -2.96875 0.875q-2.125 0 -3.390625 -1.328125q-1.25 -1.34375 -1.25 -3.71875q0 -2.390625 1.265625 -3.71875q1.265625 -1.34375 3.421875 -1.34375q1.765625 0 2.796875 0.765625q1.046875 0.75 1.515625 2.3125zm3.8444824 0.09375l-2.328125 -0.421875q0.40625 -1.40625 1.359375 -2.078125q0.953125 -0.671875 2.84375 -0.671875q1.703125 0 2.546875 0.40625q0.84375 0.40625 1.171875 1.03125q0.34375 0.625 0.34375 2.28125l-0.015625 3.0q0 1.265625 0.109375 1.875q0.125 0.609375 0.46875 1.296875l-2.53125 0q-0.109375 -0.25 -0.25 -0.75q-0.0625 -0.234375 -0.09375 -0.3125q-0.65625 0.640625 -1.40625 0.96875q-0.734375 0.3125 -1.59375 0.3125q-1.484375 0 -2.34375 -0.8125q-0.859375 -0.8125 -0.859375 -2.046875q0 -0.828125 0.390625 -1.46875q0.390625 -0.640625 1.09375 -0.96875q0.703125 -0.34375 2.03125 -0.609375q1.796875 -0.328125 2.484375 -0.625l0 -0.25q0 -0.75 -0.359375 -1.0625q-0.359375 -0.3125 -1.375 -0.3125q-0.6875 0 -1.078125 0.28125q-0.375 0.265625 -0.609375 0.9375zm3.421875 2.078125q-0.484375 0.15625 -1.5625 0.390625q-1.0625 0.21875 -1.390625 0.4375q-0.5 0.359375 -0.5 0.90625q0 0.53125 0.40625 0.9375q0.40625 0.390625 1.015625 0.390625q0.703125 0 1.328125 -0.46875q0.46875 -0.34375 0.609375 -0.84375q0.09375 -0.328125 0.09375 -1.25l0 -0.5zm4.8444214 -5.03125l2.359375 0l0 1.3125q1.265625 -1.53125 3.015625 -1.53125q0.9375 0 1.609375 0.390625q0.6875 0.375 1.125 1.140625q0.640625 -0.765625 1.375 -1.140625q0.75 -0.390625 1.578125 -0.390625q1.0625 0 1.796875 0.4375q0.75 0.421875 1.109375 1.265625q0.265625 0.625 0.265625 2.0l0 6.1875l-2.5625 0l0 -5.53125q0 -1.4375 -0.265625 -1.859375q-0.34375 -0.546875 -1.09375 -0.546875q-0.53125 0 -1.015625 0.328125q-0.46875 0.328125 -0.671875 0.96875q-0.203125 0.625 -0.203125 2.0l0 4.640625l-2.5625 0l0 -5.296875q0 -1.421875 -0.140625 -1.828125q-0.140625 -0.40625 -0.421875 -0.609375q-0.28125 -0.203125 -0.78125 -0.203125q-0.59375 0 -1.0625 0.328125q-0.46875 0.3125 -0.6875 0.921875q-0.203125 0.59375 -0.203125 1.984375l0 4.703125l-2.5625 0l0 -9.671875zm22.385315 6.59375l2.546875 0.421875q-0.484375 1.40625 -1.546875 2.140625q-1.0625 0.734375 -2.65625 0.734375q-2.515625 0 -3.734375 -1.65625q-0.953125 -1.3125 -0.953125 -3.328125q0 -2.40625 1.25 -3.765625q1.265625 -1.359375 3.1875 -1.359375q2.15625 0 3.40625 1.421875q1.25 1.421875 1.1875 4.375l-6.40625 0q0.03125 1.140625 0.609375 1.78125q0.59375 0.625 1.484375 0.625q0.59375 0 1.0 -0.328125q0.421875 -0.328125 0.625 -1.0625zm0.15625 -2.59375q-0.03125 -1.109375 -0.578125 -1.6875q-0.546875 -0.578125 -1.328125 -0.578125q-0.84375 0 -1.390625 0.609375q-0.546875 0.609375 -0.53125 1.65625l3.828125 0zm13.422546 5.671875l-2.5625 0l0 -4.9375q0 -1.5625 -0.171875 -2.015625q-0.15625 -0.46875 -0.53125 -0.71875q-0.359375 -0.265625 -0.875 -0.265625q-0.671875 0 -1.203125 0.375q-0.53125 0.359375 -0.734375 0.96875q-0.1875 0.59375 -0.1875 2.21875l0 4.375l-2.546875 0l0 -9.671875l2.375 0l0 1.421875q1.265625 -1.640625 3.1875 -1.640625q0.84375 0 1.546875 0.3125q0.703125 0.296875 1.0625 0.78125q0.359375 0.46875 0.5 1.078125q0.140625 0.59375 0.140625 1.703125l0 6.015625zm7.036621 -9.671875l0 2.03125l-1.75 0l0 3.90625q0 1.1875 0.046875 1.390625q0.046875 0.1875 0.21875 0.3125q0.1875 0.125 0.4375 0.125q0.359375 0 1.03125 -0.25l0.21875 2.0q-0.890625 0.375 -2.015625 0.375q-0.703125 0 -1.265625 -0.234375q-0.546875 -0.234375 -0.8125 -0.59375q-0.25 -0.375 -0.34375 -1.0q-0.09375 -0.453125 -0.09375 -1.8125l0 -4.21875l-1.171875 0l0 -2.03125l1.171875 0l0 -1.921875l2.578125 -1.5l0 3.421875l1.75 0z" fill-rule="nonzero"/><path fill="#000000" fill-opacity="0.0" d="m578.47766 338.75067l135.33862 0l0 42.015747l-135.33862 0z" fill-rule="evenodd"/><path fill="#999999" d="m612.02246 360.7644l2.609375 0.828125q-0.59375 2.1875 -2.0 3.25q-1.390625 1.0625 -3.546875 1.0625q-2.65625 0 -4.375 -1.8125q-1.703125 -1.828125 -1.703125 -4.984375q0 -3.328125 1.71875 -5.171875q1.71875 -1.84375 4.515625 -1.84375q2.453125 0 3.984375 1.4375q0.921875 0.859375 1.375 2.46875l-2.671875 0.640625q-0.234375 -1.046875 -0.984375 -1.640625q-0.75 -0.609375 -1.828125 -0.609375q-1.484375 0 -2.421875 1.078125q-0.921875 1.0625 -0.921875 3.4375q0 2.53125 0.90625 3.609375q0.921875 1.078125 2.375 1.078125q1.078125 0 1.84375 -0.671875q0.78125 -0.6875 1.125 -2.15625zm4.3167114 -0.0625q0 -1.28125 0.625 -2.46875q0.625 -1.203125 1.78125 -1.828125q1.15625 -0.625 2.578125 -0.625q2.1875 0 3.59375 1.421875q1.40625 1.421875 1.40625 3.609375q0 2.1875 -1.421875 3.640625q-1.421875 1.4375 -3.5625 1.4375q-1.328125 0 -2.546875 -0.59375q-1.203125 -0.609375 -1.828125 -1.765625q-0.625 -1.171875 -0.625 -2.828125zm2.625 0.125q0 1.453125 0.671875 2.21875q0.6875 0.75 1.6875 0.75q1.0 0 1.671875 -0.75q0.6875 -0.765625 0.6875 -2.234375q0 -1.421875 -0.6875 -2.1875q-0.671875 -0.765625 -1.671875 -0.765625q-1.0 0 -1.6875 0.765625q-0.671875 0.765625 -0.671875 2.203125zm18.161621 4.84375l-2.5625 0l0 -4.9375q0 -1.5625 -0.171875 -2.015625q-0.15625 -0.46875 -0.53125 -0.71875q-0.359375 -0.265625 -0.875 -0.265625q-0.671875 0 -1.203125 0.375q-0.53125 0.359375 -0.734375 0.96875q-0.1875 0.59375 -0.1875 2.21875l0 4.375l-2.546875 0l0 -9.671875l2.375 0l0 1.421875q1.265625 -1.640625 3.1875 -1.640625q0.84375 0 1.546875 0.3125q0.703125 0.296875 1.0625 0.78125q0.359375 0.46875 0.5 1.078125q0.140625 0.59375 0.140625 1.703125l0 6.015625zm7.03656 -9.671875l0 2.03125l-1.749939 0l0 3.90625q0 1.1875 0.046875 1.390625q0.046813965 0.1875 0.21868896 0.3125q0.1875 0.125 0.4375 0.125q0.359375 0 1.03125 -0.25l0.21875 2.0q-0.890625 0.375 -2.015564 0.375q-0.703125 0 -1.265625 -0.234375q-0.546875 -0.234375 -0.8125 -0.59375q-0.25 -0.375 -0.34375 -1.0q-0.09375 -0.453125 -0.09375 -1.8125l0 -4.21875l-1.171875 0l0 -2.03125l1.171875 0l0 -1.921875l2.578125 -1.5l0 3.421875l1.749939 0zm1.7752075 -1.3125l0 -2.375l2.5625 0l0 2.375l-2.5625 0zm0 10.984375l0 -9.671875l2.5625 0l0 9.671875l-2.5625 0zm13.980164 0l-2.5625 0l0 -4.9375q0 -1.5625 -0.171875 -2.015625q-0.15625 -0.46875 -0.53125 -0.71875q-0.359375 -0.265625 -0.875 -0.265625q-0.671875 0 -1.203125 0.375q-0.53125 0.359375 -0.734375 0.96875q-0.1875 0.59375 -0.1875 2.21875l0 4.375l-2.546875 0l0 -9.671875l2.375 0l0 1.421875q1.265625 -1.640625 3.1875 -1.640625q0.84375 0 1.546875 0.3125q0.703125 0.296875 1.0625 0.78125q0.359375 0.46875 0.5 1.078125q0.140625 0.59375 0.140625 1.703125l0 6.015625zm2.364746 0.640625l2.921875 0.359375q0.0625 0.5 0.328125 0.6875q0.375 0.28125 1.15625 0.28125q1.0 0 1.5 -0.296875q0.328125 -0.203125 0.515625 -0.65625q0.109375 -0.3125 0.109375 -1.171875l0 -1.40625q-1.140625 1.5625 -2.890625 1.5625q-1.953125 0 -3.09375 -1.65625q-0.890625 -1.296875 -0.890625 -3.234375q0 -2.4375 1.171875 -3.71875q1.171875 -1.28125 2.90625 -1.28125q1.796875 0 2.96875 1.578125l0 -1.359375l2.390625 0l0 8.671875q0 1.71875 -0.28125 2.5625q-0.28125 0.84375 -0.796875 1.328125q-0.5 0.484375 -1.359375 0.75q-0.84375 0.28125 -2.15625 0.28125q-2.453125 0 -3.484375 -0.84375q-1.03125 -0.84375 -1.03125 -2.125q0 -0.140625 0.015625 -0.3125zm2.28125 -5.671875q0 1.53125 0.59375 2.25q0.59375 0.71875 1.46875 0.71875q0.9375 0 1.578125 -0.734375q0.65625 -0.734375 0.65625 -2.171875q0 -1.515625 -0.625 -2.234375q-0.609375 -0.734375 -1.5625 -0.734375q-0.921875 0 -1.515625 0.71875q-0.59375 0.71875 -0.59375 2.1875zm15.708496 5.03125l0 -1.453125q-0.53125 0.78125 -1.390625 1.234375q-0.859375 0.4375 -1.8125 0.4375q-0.96875 0 -1.75 -0.421875q-0.765625 -0.4375 -1.125 -1.203125q-0.34375 -0.78125 -0.34375 -2.140625l0 -6.125l2.5625 0l0 4.4375q0 2.046875 0.140625 2.515625q0.140625 0.453125 0.515625 0.71875q0.375 0.265625 0.953125 0.265625q0.65625 0 1.171875 -0.359375q0.515625 -0.359375 0.703125 -0.890625q0.203125 -0.53125 0.203125 -2.609375l0 -4.078125l2.546875 0l0 9.671875l-2.375 0zm9.47406 -9.671875l0 2.03125l-1.75 0l0 3.90625q0 1.1875 0.046875 1.390625q0.046875 0.1875 0.21875 0.3125q0.1875 0.125 0.4375 0.125q0.359375 0 1.03125 -0.25l0.21875 2.0q-0.890625 0.375 -2.015625 0.375q-0.703125 0 -1.265625 -0.234375q-0.546875 -0.234375 -0.8125 -0.59375q-0.25 -0.375 -0.34375 -1.0q-0.09375 -0.453125 -0.09375 -1.8125l0 -4.21875l-1.171875 0l0 -2.03125l1.171875 0l0 -1.921875l2.578125 -1.5l0 3.421875l1.75 0z" fill-rule="nonzero"/><path fill="#000000" fill-opacity="0.0" d="m339.95538 327.44357l135.3386 0l0 64.62991l-135.3386 0z" fill-rule="evenodd"/><path fill="#999999" d="m389.57587 354.36356l-4.78125 -13.359375l2.9375 0l3.375 9.890625l3.265625 -9.890625l2.859375 0l-4.78125 13.359375l-2.875 0zm9.89798 -6.71875l-2.328125 -0.421875q0.40625 -1.40625 1.359375 -2.078125q0.953125 -0.671875 2.84375 -0.671875q1.703125 0 2.546875 0.40625q0.84375 0.40625 1.171875 1.03125q0.34375 0.625 0.34375 2.28125l-0.015625 3.0q0 1.265625 0.109375 1.875q0.125 0.609375 0.46875 1.296875l-2.53125 0q-0.109375 -0.25 -0.25 -0.75q-0.0625 -0.234375 -0.09375 -0.3125q-0.65625 0.640625 -1.40625 0.96875q-0.734375 0.3125 -1.59375 0.3125q-1.484375 0 -2.34375 -0.8125q-0.859375 -0.8125 -0.859375 -2.046875q0 -0.828125 0.390625 -1.46875q0.390625 -0.640625 1.09375 -0.96875q0.703125 -0.34375 2.03125 -0.609375q1.796875 -0.328125 2.484375 -0.625l0 -0.25q0 -0.75 -0.359375 -1.0625q-0.359375 -0.3125 -1.375 -0.3125q-0.6875 0 -1.078125 0.28125q-0.375 0.265625 -0.609375 0.9375zm3.421875 2.078125q-0.484375 0.15625 -1.5625 0.390625q-1.0625 0.21875 -1.390625 0.4375q-0.5 0.359375 -0.5 0.90625q0 0.53125 0.40625 0.9375q0.40625 0.390625 1.015625 0.390625q0.703125 0 1.328125 -0.46875q0.46875 -0.34375 0.609375 -0.84375q0.09375 -0.328125 0.09375 -1.25l0 -0.5zm5.047577 4.640625l0 -13.359375l2.5625 0l0 13.359375l-2.5625 0zm4.589569 -4.96875q0 -1.28125 0.625 -2.46875q0.625 -1.203125 1.78125 -1.828125q1.15625 -0.625 2.578125 -0.625q2.1875 0 3.59375 1.421875q1.40625 1.421875 1.40625 3.609375q0 2.1875 -1.421875 3.640625q-1.421875 1.4375 -3.5625 1.4375q-1.328125 0 -2.546875 -0.59375q-1.203125 -0.609375 -1.828125 -1.765625q-0.625 -1.171875 -0.625 -2.828125zm2.625 0.125q0 1.453125 0.671875 2.21875q0.6875 0.75 1.6875 0.75q1.0 0 1.671875 -0.75q0.6875 -0.765625 0.6875 -2.234375q0 -1.421875 -0.6875 -2.1875q-0.671875 -0.765625 -1.671875 -0.765625q-1.0 0 -1.6875 0.765625q-0.671875 0.765625 -0.671875 2.203125zm11.817841 4.84375l-2.5625 0l0 -9.671875l2.375 0l0 1.375q0.609375 -0.984375 1.09375 -1.28125q0.484375 -0.3125 1.109375 -0.3125q0.875 0 1.6875 0.484375l-0.796875 2.234375q-0.640625 -0.421875 -1.203125 -0.421875q-0.53125 0 -0.90625 0.296875q-0.375 0.296875 -0.59375 1.078125q-0.203125 0.765625 -0.203125 3.234375l0 2.984375z" fill-rule="nonzero"/><path fill="#999999" d="m381.85638 370.04483l-2.328125 -0.421875q0.40625 -1.40625 1.359375 -2.078125q0.953125 -0.671875 2.84375 -0.671875q1.703125 0 2.546875 0.40625q0.84375 0.40625 1.171875 1.03125q0.34375 0.625 0.34375 2.28125l-0.015625 3.0q0 1.265625 0.109375 1.875q0.125 0.609375 0.46875 1.296875l-2.53125 0q-0.109375 -0.25 -0.25 -0.75q-0.0625 -0.234375 -0.09375 -0.3125q-0.65625 0.640625 -1.40625 0.96875q-0.734375 0.3125 -1.59375 0.3125q-1.484375 0 -2.34375 -0.8125q-0.859375 -0.8125 -0.859375 -2.046875q0 -0.828125 0.390625 -1.46875q0.390625 -0.640625 1.09375 -0.96875q0.703125 -0.34375 2.03125 -0.609375q1.796875 -0.328125 2.484375 -0.625l0 -0.25q0 -0.75 -0.359375 -1.0625q-0.359375 -0.3125 -1.375 -0.3125q-0.6875 0 -1.078125 0.28125q-0.375 0.265625 -0.609375 0.9375zm3.421875 2.078125q-0.484375 0.15625 -1.5625 0.390625q-1.0625 0.21875 -1.390625 0.4375q-0.5 0.359375 -0.5 0.90625q0 0.53125 0.40625 0.9375q0.40625 0.390625 1.015625 0.390625q0.703125 0 1.328125 -0.46875q0.46875 -0.34375 0.609375 -0.84375q0.09375 -0.328125 0.09375 -1.25l0 -0.5zm9.485077 -5.03125l0 2.03125l-1.75 0l0 3.90625q0 1.1875 0.046875 1.390625q0.046875 0.1875 0.21875 0.3125q0.1875 0.125 0.4375 0.125q0.359375 0 1.03125 -0.25l0.21875 2.0q-0.890625 0.375 -2.015625 0.375q-0.703125 0 -1.265625 -0.234375q-0.546875 -0.234375 -0.8125 -0.59375q-0.25 -0.375 -0.34375 -1.0q-0.09375 -0.453125 -0.09375 -1.8125l0 -4.21875l-1.171875 0l0 -2.03125l1.171875 0l0 -1.921875l2.578125 -1.5l0 3.421875l1.75 0zm4.228302 9.671875l-2.5625 0l0 -9.671875l2.375 0l0 1.375q0.609375 -0.984375 1.09375 -1.28125q0.484375 -0.3125 1.109375 -0.3125q0.875 0 1.6875 0.484375l-0.796875 2.234375q-0.640625 -0.421875 -1.203125 -0.421875q-0.53125 0 -0.90625 0.296875q-0.375 0.296875 -0.59375 1.078125q-0.203125 0.765625 -0.203125 3.234375l0 2.984375zm4.8071594 -10.984375l0 -2.375l2.5624695 0l0 2.375l-2.5624695 0zm0 10.984375l0 -9.671875l2.5624695 0l0 9.671875l-2.5624695 0zm5.0739136 0l0 -13.359375l2.5625 0l0 4.8125q1.171875 -1.34375 2.796875 -1.34375q1.765625 0 2.921875 1.28125q1.15625 1.28125 1.15625 3.671875q0 2.484375 -1.1875 3.828125q-1.171875 1.328125 -2.859375 1.328125q-0.828125 0 -1.640625 -0.40625q-0.796875 -0.421875 -1.375 -1.234375l0 1.421875l-2.375 0zm2.53125 -5.046875q0 1.5 0.484375 2.21875q0.65625 1.03125 1.765625 1.03125q0.84375 0 1.4375 -0.71875q0.59375 -0.734375 0.59375 -2.296875q0 -1.65625 -0.609375 -2.390625q-0.59375 -0.734375 -1.53125 -0.734375q-0.921875 0 -1.53125 0.71875q-0.609375 0.71875 -0.609375 2.171875zm15.333466 5.046875l0 -1.453125q-0.53125 0.78125 -1.390625 1.234375q-0.859375 0.4375 -1.8125 0.4375q-0.96875 0 -1.75 -0.421875q-0.765625 -0.4375 -1.125 -1.203125q-0.34375 -0.78125 -0.34375 -2.140625l0 -6.125l2.5625 0l0 4.4375q0 2.046875 0.140625 2.515625q0.140625 0.453125 0.515625 0.71875q0.375 0.265625 0.953125 0.265625q0.65625 0 1.171875 -0.359375q0.515625 -0.359375 0.703125 -0.890625q0.203125 -0.53125 0.203125 -2.609375l0 -4.078125l2.546875 0l0 9.671875l-2.375 0zm9.474121 -9.671875l0 2.03125l-1.75 0l0 3.90625q0 1.1875 0.046875 1.390625q0.046875 0.1875 0.21875 0.3125q0.1875 0.125 0.4375 0.125q0.359375 0 1.03125 -0.25l0.21875 2.0q-0.890625 0.375 -2.015625 0.375q-0.703125 0 -1.265625 -0.234375q-0.546875 -0.234375 -0.8125 -0.59375q-0.25 -0.375 -0.34375 -1.0q-0.09375 -0.453125 -0.09375 -1.8125l0 -4.21875l-1.171875 0l0 -2.03125l1.171875 0l0 -1.921875l2.578125 -1.5l0 3.421875l1.75 0z" fill-rule="nonzero"/><path fill="#000000" fill-opacity="0.0" d="m123.45145 327.44357l135.3386 0l0 64.62991l-135.3386 0z" fill-rule="evenodd"/><path fill="#999999" d="m171.7827 354.36356l0 -13.359375l2.625 0l5.453125 8.921875l0 -8.921875l2.515625 0l0 13.359375l-2.703125 0l-5.390625 -8.703125l0 8.703125l-2.5 0zm12.832321 -4.96875q0 -1.28125 0.625 -2.46875q0.625 -1.203125 1.78125 -1.828125q1.15625 -0.625 2.578125 -0.625q2.1875 0 3.59375 1.421875q1.40625 1.421875 1.40625 3.609375q0 2.1875 -1.421875 3.640625q-1.421875 1.4375 -3.5625 1.4375q-1.328125 0 -2.546875 -0.59375q-1.203125 -0.609375 -1.828125 -1.765625q-0.625 -1.171875 -0.625 -2.828125zm2.625 0.125q0 1.453125 0.671875 2.21875q0.6875 0.75 1.6875 0.75q1.0 0 1.671875 -0.75q0.6875 -0.765625 0.6875 -2.234375q0 -1.421875 -0.6875 -2.1875q-0.671875 -0.765625 -1.671875 -0.765625q-1.0 0 -1.6875 0.765625q-0.671875 0.765625 -0.671875 2.203125zm9.161606 -4.828125l2.359375 0l0 1.3125q1.265625 -1.53125 3.015625 -1.53125q0.9375 0 1.609375 0.390625q0.6875 0.375 1.125 1.140625q0.640625 -0.765625 1.375 -1.140625q0.75 -0.390625 1.578125 -0.390625q1.0625 0 1.796875 0.4375q0.75 0.421875 1.109375 1.265625q0.265625 0.625 0.265625 2.0l0 6.1875l-2.5625 0l0 -5.53125q0 -1.4375 -0.265625 -1.859375q-0.34375 -0.546875 -1.09375 -0.546875q-0.53125 0 -1.015625 0.328125q-0.46875 0.328125 -0.671875 0.96875q-0.203125 0.625 -0.203125 2.0l0 4.640625l-2.5625 0l0 -5.296875q0 -1.421875 -0.140625 -1.828125q-0.140625 -0.40625 -0.421875 -0.609375q-0.28125 -0.203125 -0.78125 -0.203125q-0.59375 0 -1.0625 0.328125q-0.46875 0.3125 -0.6875 0.921875q-0.203125 0.59375 -0.203125 1.984375l0 4.703125l-2.5625 0l0 -9.671875z" fill-rule="nonzero"/><path fill="#999999" d="m165.35243 370.04483l-2.328125 -0.421875q0.40625 -1.40625 1.359375 -2.078125q0.953125 -0.671875 2.84375 -0.671875q1.703125 0 2.546875 0.40625q0.84375 0.40625 1.171875 1.03125q0.34375 0.625 0.34375 2.28125l-0.015625 3.0q0 1.265625 0.109375 1.875q0.125 0.609375 0.46875 1.296875l-2.53125 0q-0.109375 -0.25 -0.25 -0.75q-0.0625 -0.234375 -0.09375 -0.3125q-0.65625 0.640625 -1.40625 0.96875q-0.734375 0.3125 -1.59375 0.3125q-1.484375 0 -2.34375 -0.8125q-0.859375 -0.8125 -0.859375 -2.046875q0 -0.828125 0.390625 -1.46875q0.390625 -0.640625 1.09375 -0.96875q0.703125 -0.34375 2.03125 -0.609375q1.796875 -0.328125 2.484375 -0.625l0 -0.25q0 -0.75 -0.359375 -1.0625q-0.359375 -0.3125 -1.375 -0.3125q-0.6875 0 -1.078125 0.28125q-0.375 0.265625 -0.609375 0.9375zm3.421875 2.078125q-0.484375 0.15625 -1.5625 0.390625q-1.0625 0.21875 -1.390625 0.4375q-0.5 0.359375 -0.5 0.90625q0 0.53125 0.40625 0.9375q0.40625 0.390625 1.015625 0.390625q0.703125 0 1.328125 -0.46875q0.46875 -0.34375 0.609375 -0.84375q0.09375 -0.328125 0.09375 -1.25l0 -0.5zm9.485092 -5.03125l0 2.03125l-1.75 0l0 3.90625q0 1.1875 0.046875 1.390625q0.046875 0.1875 0.21875 0.3125q0.1875 0.125 0.4375 0.125q0.359375 0 1.03125 -0.25l0.21875 2.0q-0.890625 0.375 -2.015625 0.375q-0.703125 0 -1.265625 -0.234375q-0.546875 -0.234375 -0.8125 -0.59375q-0.25 -0.375 -0.34375 -1.0q-0.09375 -0.453125 -0.09375 -1.8125l0 -4.21875l-1.171875 0l0 -2.03125l1.171875 0l0 -1.921875l2.578125 -1.5l0 3.421875l1.75 0zm4.228302 9.671875l-2.5625 0l0 -9.671875l2.375 0l0 1.375q0.609375 -0.984375 1.09375 -1.28125q0.484375 -0.3125 1.109375 -0.3125q0.875 0 1.6875 0.484375l-0.796875 2.234375q-0.640625 -0.421875 -1.203125 -0.421875q-0.53125 0 -0.90625 0.296875q-0.375 0.296875 -0.59375 1.078125q-0.203125 0.765625 -0.203125 3.234375l0 2.984375zm4.807144 -10.984375l0 -2.375l2.5625 0l0 2.375l-2.5625 0zm0 10.984375l0 -9.671875l2.5625 0l0 9.671875l-2.5625 0zm5.073929 0l0 -13.359375l2.5625 0l0 4.8125q1.171875 -1.34375 2.796875 -1.34375q1.765625 0 2.921875 1.28125q1.15625 1.28125 1.15625 3.671875q0 2.484375 -1.1875 3.828125q-1.171875 1.328125 -2.859375 1.328125q-0.828125 0 -1.640625 -0.40625q-0.796875 -0.421875 -1.375 -1.234375l0 1.421875l-2.375 0zm2.53125 -5.046875q0 1.5 0.484375 2.21875q0.65625 1.03125 1.765625 1.03125q0.84375 0 1.4375 -0.71875q0.59375 -0.734375 0.59375 -2.296875q0 -1.65625 -0.609375 -2.390625q-0.59375 -0.734375 -1.53125 -0.734375q-0.921875 0 -1.53125 0.71875q-0.609375 0.71875 -0.609375 2.171875zm15.333481 5.046875l0 -1.453125q-0.53125 0.78125 -1.390625 1.234375q-0.859375 0.4375 -1.8125 0.4375q-0.96875 0 -1.75 -0.421875q-0.765625 -0.4375 -1.125 -1.203125q-0.34375 -0.78125 -0.34375 -2.140625l0 -6.125l2.5625 0l0 4.4375q0 2.046875 0.140625 2.515625q0.140625 0.453125 0.515625 0.71875q0.375 0.265625 0.953125 0.265625q0.65625 0 1.171875 -0.359375q0.515625 -0.359375 0.703125 -0.890625q0.203125 -0.53125 0.203125 -2.609375l0 -4.078125l2.546875 0l0 9.671875l-2.375 0zm9.474106 -9.671875l0 2.03125l-1.75 0l0 3.90625q0 1.1875 0.046875 1.390625q0.046875 0.1875 0.21875 0.3125q0.1875 0.125 0.4375 0.125q0.359375 0 1.03125 -0.25l0.21875 2.0q-0.890625 0.375 -2.015625 0.375q-0.703125 0 -1.265625 -0.234375q-0.546875 -0.234375 -0.8125 -0.59375q-0.25 -0.375 -0.34375 -1.0q-0.09375 -0.453125 -0.09375 -1.8125l0 -4.21875l-1.171875 0l0 -2.03125l1.171875 0l0 -1.921875l2.578125 -1.5l0 3.421875l1.75 0z" fill-rule="nonzero"/></g></svg>